<?xml version="1.0" encoding="utf-8"?>
<!-- Generator: Adobe Illustrator 21.0.2, SVG Export Plug-In . SVG Version: 6.00 Build 0)  -->
<svg version="1.1" id="Layer_1" xmlns="http://www.w3.org/2000/svg" xmlns:xlink="http://www.w3.org/1999/xlink" x="0px" y="0px"
	 viewBox="0 0 129.4 135.5" style="enable-background:new 0 0 129.4 135.5;" xml:space="preserve">
<style type="text/css">
	.st0{display:none;}
	.st1{display:inline;}
</style>
<g class="st0">
	<g class="st1">
		<path d="M116.1,134.2L116.1,134.2c-11,0-21.4-3.6-30.9-10.6c-7.1,2.6-14.5,4-22.1,4C28.3,127.6,0,99.3,0,64.5S28.3,1.4,63.1,1.4
			c34.8,0,63.1,28.3,63.1,63.1c0,16.6-6.4,32.2-17.9,44c2.7,6.7,8.1,13.5,16.1,20.2l5,4.1l-6.4,0.9
			C120.7,134,118.4,134.2,116.1,134.2z M86.1,117.1l1.3,1c8.7,6.8,18.2,10.3,28.3,10.4c-6.7-6.5-11.1-13-13.4-19.8l-0.6-1.7l1.3-1.2
			c11.3-10.9,17.5-25.6,17.5-41.3C120.5,32.8,94.8,7,63.1,7C31.4,7,5.7,32.8,5.7,64.5c0,31.7,25.8,57.4,57.4,57.4
			c7.4,0,14.6-1.4,21.5-4.2L86.1,117.1z"/>
	</g>
</g>
<g class="st0">
	<g class="st1">
		<circle cx="34.9" cy="68.3" r="9"/>
		<circle cx="63.7" cy="68.3" r="9"/>
		<circle cx="92.5" cy="68.3" r="9"/>
		<path d="M115.4,100.1c7.5-10.7,11.5-23.2,11.5-36.3c0-34.8-28.3-63.1-63.1-63.1C28.9,0.7,0.6,29,0.6,63.8s28.3,63.1,63.1,63.1
			c8.7,0,17.2-1.8,25.2-5.2l39.9,13.2L115.4,100.1z M88.3,115.5c0,0-7.9,4.8-24.6,5.8C32,121.2,6.3,95.5,6.3,63.8S32,6.3,63.7,6.3
			c31.7,0,57.4,25.8,57.4,57.4c-0.4,22.3-12.3,35-12.3,35l10.4,26.9L88.3,115.5z"/>
	</g>
</g>
<g class="st0">
	<g class="st1">
		<path d="M96.2,45.4H31.2c-2.7,0-4.8,2-4.8,4.5c0,2.5,2.2,4.5,4.8,4.5h64.9c2.7,0,4.8-2,4.8-4.5C101,47.4,98.8,45.4,96.2,45.4z"/>
		<path d="M96.2,62.4H31.2c-2.7,0-4.8,2-4.8,4.5c0,2.5,2.2,4.5,4.8,4.5h64.9c2.7,0,4.8-2,4.8-4.5C101,64.4,98.8,62.4,96.2,62.4z"/>
		<path d="M96.2,79.4H31.2c-2.7,0-4.8,2-4.8,4.5c0,2.5,2.2,4.5,4.8,4.5h64.9c2.7,0,4.8-2,4.8-4.5C101,81.4,98.8,79.4,96.2,79.4z"/>
		<path d="M115.4,100.1c7.5-10.7,11.5-23.2,11.5-36.3c0-34.8-28.3-63.1-63.1-63.1C28.9,0.7,0.6,29,0.6,63.8s28.3,63.1,63.1,63.1
			c8.7,0,17.2-1.8,25.2-5.2l39.9,13.2L115.4,100.1z M88.3,115.5c0,0-7.9,4.8-24.6,5.8C32,121.2,6.3,95.5,6.3,63.8S32,6.3,63.7,6.3
			c31.7,0,57.4,25.8,57.4,57.4c-0.4,22.3-12.3,35-12.3,35l10.4,26.9L88.3,115.5z"/>
	</g>
</g>
<g class="st0">
	<g class="st1">
		<path d="M115.4,100.1c7.5-10.7,11.5-23.2,11.5-36.3c0-34.8-28.3-63.1-63.1-63.1C28.9,0.7,0.6,29,0.6,63.8s28.3,63.1,63.1,63.1
			c8.7,0,17.2-1.8,25.2-5.2l39.9,13.2L115.4,100.1z M108.8,98.8l10.4,26.9l-30.9-10.2c0,0-7.9,4.8-24.6,5.8
			C32,121.2,6.3,95.5,6.3,63.8S32,6.3,63.7,6.3c31.7,0,57.4,25.8,57.4,57.4C120.8,86.1,108.8,98.8,108.8,98.8z"/>
	</g>
</g>
<g class="st0">
	<g class="st1">
		<path d="M90.1,42.6c-1.8-1.8-4.7-1.7-6.6,0.2L63.7,62.5L43.9,42.8c-1.9-1.9-4.8-2-6.6-0.2c-1.8,1.8-1.7,4.7,0.2,6.6l19.8,19.8
			L37.5,88.7c-1.9,1.9-2,4.8-0.2,6.6s4.7,1.7,6.6-0.2l19.8-19.8l19.8,19.8c1.9,1.9,4.8,2,6.6,0.2c1.8-1.8,1.7-4.7-0.2-6.6L70.1,68.9
			l19.8-19.8C91.7,47.3,91.8,44.3,90.1,42.6z"/>
		<path d="M115.4,100.1c7.5-10.7,11.5-23.2,11.5-36.3c0-34.8-28.3-63.1-63.1-63.1C28.9,0.7,0.6,29,0.6,63.8s28.3,63.1,63.1,63.1
			c8.7,0,17.2-1.8,25.2-5.2l39.9,13.2L115.4,100.1z M88.3,115.5c0,0-7.9,4.8-24.6,5.8C32,121.2,6.3,95.5,6.3,63.8S32,6.3,63.7,6.3
			c31.7,0,57.4,25.8,57.4,57.4c-0.4,22.3-12.3,35-12.3,35l10.4,26.9L88.3,115.5z"/>
	</g>
</g>
<g class="st0">
	<g class="st1">
		<path d="M93.8,42.6L52.4,84.8l-19-21.1c-1.7-1.9-4.5-2.1-6.2-0.3c-1.7,1.7-1.7,4.7,0.1,6.6l21.5,23.9c0.8,0.9,1.8,1.4,2.8,1.5
			c0.1,0,0.2,0,0.2,0c0,0,0.1,0,0.1,0c1.3,0.2,2.7-0.3,3.7-1.3l44.1-44.9c1.8-1.8,1.9-4.8,0.3-6.6C98.4,40.7,95.6,40.8,93.8,42.6z"
			/>
		<path d="M115.4,100.1c7.5-10.7,11.5-23.2,11.5-36.3c0-34.8-28.3-63.1-63.1-63.1C28.9,0.7,0.6,29,0.6,63.8s28.3,63.1,63.1,63.1
			c8.7,0,17.2-1.8,25.2-5.2l39.9,13.2L115.4,100.1z M88.3,115.5c0,0-7.9,4.8-24.6,5.8C32,121.2,6.3,95.5,6.3,63.8S32,6.3,63.7,6.3
			c31.7,0,57.4,25.8,57.4,57.4c-0.4,22.3-12.3,35-12.3,35l10.4,26.9L88.3,115.5z"/>
	</g>
</g>
<g class="st0">
	<g class="st1">
		<path d="M127.8,135.5l-26.4-21c-10.8,7.7-23.4,11.8-36.7,11.8c-34.8,0-63.1-28.3-63.1-63.1S29.9,0,64.7,0
			c32.5,0,59.4,24.7,62.8,56.3c0,0,0.4,5.7,0.4,6.8c0,0.9,0,1.9-0.1,3L127.8,135.5z M105.1,110.2l17.1,13.6l-0.1-47.5l0-10.3
			c0-33.2-25.7-60.3-57.4-60.3S7.2,31.4,7.2,63.1s25.8,57.4,57.4,57.4c12.8,0,26.5-5.7,36.6-13.5L105.1,110.2z"/>
	</g>
</g>
<g class="st0">
	<g class="st1">
		<path d="M63,86c-4.1,0-6.8,2.1-6.8,5.2s2.8,5.3,6.8,5.3c4.1,0,6.9-2.2,6.9-5.3S67.1,86,63,86z"/>
		<path d="M63.3,40c-9.9,0-16.8,5.7-17.4,14.6c-0.1,0.9,0.6,1.4,1.7,1.4h8c1.1,0,1.8-0.5,1.8-1.4c0.4-3.8,2.4-6.1,6.3-6.1
			c4.3,0,6,2.6,6,5.6c0,9.2-12.7,10-12.7,24.8v2c0,0.9,0.7,1.3,1.8,1.3h8.3c1.1,0,1.8-0.5,1.8-1.3v-2c0-11,12.5-12.5,12.5-25.2
			C81.5,45.4,74.2,40,63.3,40z"/>
		<path d="M115.4,100.1c7.5-10.7,11.5-23.2,11.5-36.3c0-34.8-28.3-63.1-63.1-63.1C28.9,0.7,0.6,29,0.6,63.8s28.3,63.1,63.1,63.1
			c8.7,0,17.2-1.8,25.2-5.2l39.9,13.2L115.4,100.1z M88.3,115.5c0,0-7.9,4.8-24.6,5.8C32,121.2,6.3,95.5,6.3,63.8S32,6.3,63.7,6.3
			c31.7,0,57.4,25.8,57.4,57.4c-0.4,22.3-12.3,35-12.3,35l10.4,26.9L88.3,115.5z"/>
	</g>
</g>
<g class="st0">
	<g class="st1">
		<circle cx="35.9" cy="66.8" r="9"/>
		<circle cx="64.7" cy="66.8" r="9"/>
		<circle cx="93.5" cy="66.8" r="9"/>
		<path d="M127.7,66.1c0-1,0.1-2,0.1-3c0-1.1-0.4-6.8-0.4-6.8C124.1,24.7,97.2,0,64.7,0C29.9,0,1.6,28.3,1.6,63.1
			s28.3,63.1,63.1,63.1c13.3,0,25.9-4.1,36.7-11.8l26.4,21L127.7,66.1z M105.1,110.2l-3.7-3.1c-10.1,7.8-23.8,13.5-36.6,13.5
			C33,120.6,7.2,94.8,7.2,63.1S33,5.7,64.7,5.7s57.4,27.1,57.4,60.3l0,10.3l0.1,47.5L105.1,110.2z"/>
	</g>
</g>
<g class="st0">
	<g class="st1">
		<path d="M59.8,81.9h7.7c1.1,0,1.7-0.5,1.7-1.4V40.3c0-0.9-0.6-1.4-1.7-1.4h-7.7c-1.1,0-1.7,0.5-1.7,1.4v40.1
			C58.1,81.4,58.7,81.9,59.8,81.9z"/>
		<path d="M63.7,85.3c-3.8,0-6.3,2.2-6.3,5.4s2.6,5.5,6.3,5.5c3.8,0,6.4-2.3,6.4-5.5S67.5,85.3,63.7,85.3z"/>
		<path d="M115.4,100.1c7.5-10.7,11.5-23.2,11.5-36.3c0-34.8-28.3-63.1-63.1-63.1C28.9,0.7,0.6,29,0.6,63.8s28.3,63.1,63.1,63.1
			c8.7,0,17.2-1.8,25.2-5.2l39.9,13.2L115.4,100.1z M88.3,115.5c0,0-7.9,4.8-24.6,5.8C32,121.2,6.3,95.5,6.3,63.8S32,6.3,63.7,6.3
			c31.7,0,57.4,25.8,57.4,57.4c-0.4,22.3-12.3,35-12.3,35l10.4,26.9L88.3,115.5z"/>
	</g>
</g>
<g class="st0">
	<g class="st1">
		<path d="M97.1,43.8H32.2c-2.7,0-4.8,2-4.8,4.5s2.2,4.5,4.8,4.5h64.9c2.7,0,4.8-2,4.8-4.5S99.8,43.8,97.1,43.8z"/>
		<path d="M97.1,60.8H32.2c-2.7,0-4.8,2-4.8,4.5s2.2,4.5,4.8,4.5h64.9c2.7,0,4.8-2,4.8-4.5S99.8,60.8,97.1,60.8z"/>
		<path d="M97.1,77.8H32.2c-2.7,0-4.8,2-4.8,4.5s2.2,4.5,4.8,4.5h64.9c2.7,0,4.8-2,4.8-4.5S99.8,77.8,97.1,77.8z"/>
		<path d="M127.7,66.1c0-1,0.1-2,0.1-3c0-1.1-0.4-6.8-0.4-6.8C124.1,24.7,97.2,0,64.7,0C29.9,0,1.6,28.3,1.6,63.1
			s28.3,63.1,63.1,63.1c13.3,0,25.9-4.1,36.7-11.8l26.4,21L127.7,66.1z M105.1,110.2l-3.7-3.1c-10.1,7.8-23.8,13.5-36.6,13.5
			C33,120.6,7.2,94.8,7.2,63.1S33,5.7,64.7,5.7s57.4,27.1,57.4,60.3l0,10.3l0.1,47.5L105.1,110.2z"/>
	</g>
</g>
<g class="st0">
	<g class="st1">
		<path d="M91,41c-1.8-1.8-4.7-1.7-6.6,0.2L64.7,61L44.9,41.2c-1.9-1.9-4.8-2-6.6-0.2c-1.8,1.8-1.7,4.7,0.2,6.6l19.8,19.8L38.5,87.2
			c-1.9,1.9-2,4.8-0.2,6.6s4.7,1.7,6.6-0.2l19.8-19.8l19.8,19.8c1.9,1.9,4.8,2,6.6,0.2c1.8-1.8,1.7-4.7-0.2-6.6L71.1,67.4l19.8-19.8
			C92.7,45.8,92.8,42.8,91,41z"/>
		<path d="M127.7,66.1c0-1,0.1-2,0.1-3c0-1.1-0.4-6.8-0.4-6.8C124.1,24.7,97.2,0,64.7,0C29.9,0,1.6,28.3,1.6,63.1
			s28.3,63.1,63.1,63.1c13.3,0,25.9-4.1,36.7-11.8l26.4,21L127.7,66.1z M105.1,110.2l-3.7-3.1c-10.1,7.8-23.8,13.5-36.6,13.5
			C33,120.6,7.2,94.8,7.2,63.1S33,5.7,64.7,5.7s57.4,27.1,57.4,60.3l0,10.3l0.1,47.5L105.1,110.2z"/>
	</g>
</g>
<g class="st0">
	<g class="st1">
		<path d="M96.5,57.3H31.6c-3.4,0-6.2,2.7-6.2,5.9s2.8,5.9,6.2,5.9h64.9c3.4,0,6.2-2.7,6.2-5.9C102.7,60,100,57.3,96.5,57.3z
			 M96.5,66.4H31.6c-1.9,0-3.4-1.4-3.4-3.1s1.5-3.1,3.4-3.1h64.9c1.9,0,3.4,1.4,3.4,3.1C99.9,65,98.4,66.4,96.5,66.4z"/>
		<path d="M96.5,74.3H31.6c-3.4,0-6.2,2.7-6.2,5.9s2.8,5.9,6.2,5.9h64.9c3.4,0,6.2-2.7,6.2-5.9C102.7,77,100,74.3,96.5,74.3z
			 M96.5,83.4H31.6c-1.9,0-3.4-1.4-3.4-3.1s1.5-3.1,3.4-3.1h64.9c1.9,0,3.4,1.4,3.4,3.1C99.9,82,98.4,83.4,96.5,83.4z"/>
		<path d="M96.5,40.3H31.6c-3.4,0-6.2,2.7-6.2,5.9s2.8,5.9,6.2,5.9h64.9c3.4,0,6.2-2.7,6.2-5.9C102.7,43,100,40.3,96.5,40.3z
			 M96.5,49.4H31.6c-1.9,0-3.4-1.4-3.4-3.1s1.5-3.1,3.4-3.1h64.9c1.9,0,3.4,1.4,3.4,3.1C99.9,48,98.4,49.4,96.5,49.4z"/>
		<path d="M126.3,66.8L126.3,66.8c0-1,0.1-2,0.1-2.9c0-34-27.7-61.7-61.7-61.7S3,29.9,3,63.9s27.7,61.7,61.7,61.7
			c13.4,0,26-4.2,36.7-12.1l25,19.9L126.3,66.8z M123.5,71.9l0.1,55.5l-22.1-17.6c-10.4,8-23.6,12.9-36.7,12.9
			c-32.5,0-58.9-26.4-58.9-58.9S32.2,5,64.7,5s58.9,26.4,58.9,58.9c0,0.9,0,1.9-0.1,2.9L123.5,71.9z"/>
	</g>
</g>
<g class="st0">
	<g class="st1">
		<path d="M94.8,41.1L53.3,83.3l-19-21.1c-1.7-1.9-4.5-2.1-6.2-0.3c-1.7,1.7-1.7,4.7,0.1,6.6l21.5,23.9c0.8,0.9,1.8,1.4,2.8,1.5
			c0.1,0,0.2,0,0.2,0c0,0,0.1,0,0.1,0c1.3,0.2,2.7-0.3,3.7-1.3l44.1-44.9c1.8-1.8,1.9-4.8,0.3-6.6C99.3,39.2,96.6,39.2,94.8,41.1z"
			/>
		<path d="M127.7,66.1c0-1,0.1-2,0.1-3c0-1.1-0.4-6.8-0.4-6.8C124.1,24.7,97.2,0,64.7,0C29.9,0,1.6,28.3,1.6,63.1
			s28.3,63.1,63.1,63.1c13.3,0,25.9-4.1,36.7-11.8l26.4,21L127.7,66.1z M105.1,110.2l-3.7-3.1c-10.1,7.8-23.8,13.5-36.6,13.5
			C33,120.6,7.2,94.8,7.2,63.1S33,5.7,64.7,5.7s57.4,27.1,57.4,60.3l0,10.3l0.1,47.5L105.1,110.2z"/>
	</g>
</g>
<g class="st0">
	<g class="st1">
		<path d="M64,84.5c-4.1,0-6.8,2.1-6.8,5.3s2.8,5.3,6.8,5.3c4.1,0,6.9-2.2,6.9-5.3S68.1,84.5,64,84.5z"/>
		<path d="M64.3,38.5c-9.9,0-16.8,5.7-17.4,14.6c-0.1,0.9,0.6,1.4,1.7,1.4h8c1.1,0,1.8-0.5,1.8-1.4c0.4-3.8,2.4-6.1,6.3-6.1
			c4.3,0,6,2.6,6,5.6c0,9.2-12.7,10-12.7,24.8v2c0,0.9,0.7,1.3,1.8,1.3h8.3c1.1,0,1.8-0.5,1.8-1.3v-2c0-11.1,12.5-12.5,12.5-25.2
			C82.5,43.9,75.1,38.5,64.3,38.5z"/>
		<path d="M127.7,66.1c0-1,0.1-2,0.1-3c0-1.1-0.4-6.8-0.4-6.8C124.1,24.7,97.2,0,64.7,0C29.9,0,1.6,28.3,1.6,63.1
			c0,34.8,28.3,63.1,63.1,63.1c13.3,0,25.9-4.1,36.7-11.8l26.4,21L127.7,66.1z M105.1,110.2l-3.7-3.1c-10.1,7.8-23.8,13.5-36.6,13.5
			C33,120.6,7.2,94.8,7.2,63.1S33,5.7,64.7,5.7s57.4,27.1,57.4,60.3l0,10.3l0.1,47.5L105.1,110.2z"/>
	</g>
</g>
<g class="st0">
	<g class="st1">
		<path d="M97.4,36.2c-1.6,0-3.1,0.6-4.2,1.8L52.8,79.2l-18-20c-1.2-1.3-2.8-2-4.4-2c-1.5,0-2.8,0.6-3.9,1.6c-2.2,2.2-2.2,6.1,0,8.5
			l21.5,23.9c1,1.1,2.2,1.7,3.6,1.9c0.1,0,0.1,0,0.2,0l0.3,0c0.2,0,0.4,0,0.6,0c1.6,0,3.1-0.6,4.2-1.8l44.1-44.9
			c2.3-2.4,2.5-6.2,0.4-8.5C100.4,36.8,99,36.2,97.4,36.2z M99.1,44.5L55,89.5c-0.6,0.6-1.4,1-2.2,1c-0.1,0-0.2,0-0.4,0l0,0l-0.2,0
			c-0.5-0.1-1.3-0.3-1.9-1L28.7,65.4c-1.2-1.4-1.3-3.5-0.1-4.7c1.1-1.1,3-1,4.1,0.3l20,22.2L95.2,40c1.2-1.2,3.1-1.3,4.1-0.1
			C100.5,41.1,100.4,43.2,99.1,44.5z"/>
		<path d="M126.3,66.8L126.3,66.8c0-1,0.1-2,0.1-2.9c0-34-27.7-61.7-61.7-61.7S3,29.9,3,63.9s27.7,61.7,61.7,61.7
			c13.4,0,26-4.2,36.7-12.1l25,19.9L126.3,66.8z M123.5,71.9l0.1,55.5l-22.1-17.6c-10.4,8-23.6,12.9-36.7,12.9
			c-32.5,0-58.9-26.4-58.9-58.9S32.2,5,64.7,5s58.9,26.4,58.9,58.9c0,0.9,0,1.9-0.1,2.9L123.5,71.9z"/>
	</g>
</g>
<g class="st0">
	<g class="st1">
		<path d="M127.7,66.1c0-1,0.1-2,0.1-3c0-1.1-0.4-6.8-0.4-6.8C124.1,24.7,97.2,0,64.7,0C29.9,0,1.6,28.3,1.6,63.1
			s28.3,63.1,63.1,63.1c13.3,0,25.9-4.1,36.7-11.8l26.4,21L127.7,66.1z M105.1,110.2l-3.7-3.1c-10.1,7.8-23.8,13.5-36.6,13.5
			C33,120.6,7.2,94.8,7.2,63.1S33,5.7,64.7,5.7s57.4,27.1,57.4,60.3l0,10.3l0.1,47.5L105.1,110.2z"/>
		<path d="M60.8,80.4h7.7c1.1,0,1.7-0.5,1.7-1.4V38.8c0-0.9-0.6-1.4-1.7-1.4h-7.7c-1.1,0-1.7,0.5-1.7,1.4v40.2
			C59.1,79.9,59.7,80.4,60.8,80.4z"/>
		<path d="M64.7,83.8c-3.8,0-6.3,2.2-6.3,5.4s2.6,5.5,6.3,5.5c3.8,0,6.4-2.3,6.4-5.5S68.5,83.8,64.7,83.8z"/>
	</g>
</g>
<g class="st0">
	<g class="st1">
		<path d="M124.5,129.8c-8.6-7.1-14.3-14.4-16.9-21.6c11.7-11.7,18.2-27.1,18.2-43.7c0-34-27.7-61.7-61.7-61.7S2.4,30.4,2.4,64.5
			s27.7,61.7,61.7,61.7c7.7,0,15.2-1.4,22.3-4.2c9.4,7.1,19.7,10.8,30.7,10.8c0,0,0,0,0,0c2.2,0,4.5-0.2,6.7-0.5l3.2-0.4
			L124.5,129.8z M117.1,129.9L117.1,129.9c-10.6,0-20.5-3.6-29.6-10.7l-0.6-0.5l-0.8,0.3c-7,2.8-14.4,4.3-22,4.3
			c-32.4,0-58.8-26.4-58.8-58.8C5.2,32,31.6,5.6,64.1,5.6c32.4,0,58.8,26.4,58.8,58.8c0,16.1-6.4,31.1-17.9,42.3l-0.6,0.6l0.3,0.8
			c2.4,7.4,7.5,14.5,15.5,21.6C119.1,129.9,118.1,129.9,117.1,129.9z"/>
		<path d="M97.4,36.8c-1.6,0-3.1,0.6-4.2,1.8L52.8,79.8l-18-20c-1.2-1.3-2.8-2-4.4-2c-1.5,0-2.8,0.6-3.9,1.6c-2.2,2.2-2.2,6.1,0,8.5
			l21.5,23.9c1,1.1,2.2,1.7,3.6,1.9c0.1,0,0.1,0,0.2,0l0.3,0c0.2,0,0.4,0,0.6,0c1.6,0,3.1-0.6,4.2-1.8l44.1-44.9
			c2.3-2.4,2.5-6.2,0.4-8.5C100.4,37.4,98.9,36.8,97.4,36.8z M99,45.1L55,90.1c-0.6,0.6-1.4,1-2.2,1c-0.1,0-0.2,0-0.4,0l0,0l-0.2,0
			c-0.5-0.1-1.3-0.3-1.9-1L28.7,66c-1.2-1.4-1.3-3.5-0.1-4.7c1.1-1.1,3-1,4.1,0.3l20,22.2l42.5-43.3c1.2-1.2,3.1-1.3,4.1-0.1
			C100.5,41.7,100.3,43.8,99,45.1z"/>
	</g>
</g>
<g class="st0">
	<g class="st1">
		<path d="M91.5,38c-1.1-1.1-2.5-1.7-4.1-1.7c-1.7,0-3.3,0.7-4.5,1.9L64.1,56.9L45.3,38.2c-1.2-1.2-2.8-1.9-4.5-1.9
			c-1.6,0-3,0.6-4.1,1.7c-2.3,2.3-2.2,6.2,0.2,8.6l18.8,18.8L36.9,84.1c-2.4,2.4-2.5,6.3-0.2,8.6c1.1,1.1,2.5,1.7,4.1,1.7
			c1.7,0,3.3-0.7,4.5-1.9l18.8-18.8l18.8,18.8c1.2,1.2,2.8,1.9,4.5,1.9c1.6,0,3-0.6,4.1-1.7c2.3-2.3,2.2-6.2-0.2-8.6L72.5,65.3
			l18.8-18.8C93.7,44.1,93.8,40.3,91.5,38z M89.2,44.6L68.5,65.3l20.8,20.8c1.3,1.3,1.4,3.4,0.2,4.6c-1.2,1.2-3.3,1.1-4.6-0.2
			L64.1,69.7L43.3,90.5c-1.3,1.3-3.4,1.4-4.6,0.2c-1.2-1.2-1.1-3.3,0.2-4.6l20.8-20.8L38.9,44.6c-1.3-1.3-1.4-3.4-0.2-4.6
			c1.2-1.2,3.3-1.1,4.6,0.2l20.8,20.8l20.8-20.8c1.3-1.3,3.4-1.4,4.6-0.2C90.7,41.2,90.6,43.2,89.2,44.6z"/>
		<path d="M126.3,66.8L126.3,66.8c0-1,0.1-2,0.1-2.9c0-34-27.7-61.7-61.7-61.7S3,29.9,3,63.9s27.7,61.7,61.7,61.7
			c13.4,0,26-4.2,36.7-12.1l25,19.9L126.3,66.8z M123.5,71.9l0.1,55.5l-22.1-17.6c-10.4,8-23.6,12.9-36.7,12.9
			c-32.5,0-58.9-26.4-58.9-58.9S32.2,5,64.7,5s58.9,26.4,58.9,58.9c0,0.9,0,1.9-0.1,2.9L123.5,71.9z"/>
	</g>
</g>
<g class="st0">
	<path class="st1" d="M124.9,67.6c0-1,0.1-2,0.1-3c0-33.3-27-60.3-60.3-60.3c-33.3,0-60.3,27-60.3,60.3s27,60.3,60.3,60.3
		c13.8,0,26.6-4.7,36.8-12.5l0,0l23.5,18.7L124.9,67.6L124.9,67.6z M35.7,76.3c-5,0-9-4-9-9s4-9,9-9s9,4,9,9S40.7,76.3,35.7,76.3z
		 M64.5,76.3c-5,0-9-4-9-9s4-9,9-9c5,0,9,4,9,9S69.5,76.3,64.5,76.3z M93.3,76.3c-5,0-9-4-9-9s4-9,9-9c5,0,9,4,9,9
		S98.2,76.3,93.3,76.3z"/>
</g>
<g class="st0">
	<g class="st1">
		<path d="M91,38.6c-1.1-1.1-2.5-1.7-4.1-1.7c-1.7,0-3.3,0.7-4.5,1.9L63.6,57.5L44.8,38.8c-1.2-1.2-2.8-1.9-4.5-1.9
			c-1.6,0-3,0.6-4.1,1.7c-2.3,2.3-2.2,6.2,0.2,8.6l18.8,18.8L36.4,84.7c-2.4,2.4-2.5,6.3-0.2,8.6c1.1,1.1,2.5,1.7,4.1,1.7
			c1.7,0,3.3-0.7,4.5-1.9l18.8-18.8l18.8,18.8c1.2,1.2,2.8,1.9,4.5,1.9c1.6,0,3-0.6,4.1-1.7c2.3-2.3,2.2-6.2-0.2-8.6L72,65.9
			l18.8-18.8C93.2,44.7,93.3,40.9,91,38.6z M88.8,45.2L68,65.9l20.8,20.8c1.3,1.3,1.4,3.4,0.2,4.6c-1.2,1.2-3.3,1.1-4.6-0.2
			L63.6,70.3L42.8,91.1c-1.3,1.3-3.4,1.4-4.6,0.2c-1.2-1.2-1.1-3.3,0.2-4.6l20.8-20.8L38.4,45.2c-1.3-1.3-1.4-3.4-0.2-4.6
			c1.2-1.2,3.3-1.1,4.6,0.2l20.8,20.8l20.8-20.8c1.3-1.3,3.4-1.4,4.6-0.2C90.2,41.8,90.1,43.8,88.8,45.2z"/>
		<path d="M114.2,100.3c7.6-10.6,11.7-23,11.7-36.1c0-34-27.7-61.7-61.7-61.7S2.5,30.2,2.5,64.2c0,34,27.7,61.7,61.7,61.7
			c8.7,0,17.2-1.8,25.1-5.4l37.6,12.4L114.2,100.3z M89.2,117.5c-7.7,3.6-16.5,5.6-25,5.6c-32.5,0-58.9-26.4-58.9-58.9
			S31.7,5.3,64.2,5.3s58.9,26.4,58.9,58.9c0,12.7-4.5,25.5-12,35.7l1,2.5l10.1,26L89.2,117.5z"/>
	</g>
</g>
<g class="st0">
	<path class="st1" d="M64.7,4.4c-33.3,0-60.3,27-60.3,60.3s27,60.3,60.3,60.3c13.8,0,26.6-4.7,36.8-12.5l0,0l23.5,18.7l-0.1-63.6
		l0,0c0-1,0.1-2,0.1-3C125,31.3,98,4.4,64.7,4.4z M97,87.4H32.1c-2.7,0-4.8-2-4.8-4.5c0-2.5,2.2-4.5,4.8-4.5H97c2.7,0,4.8,2,4.8,4.5
		C101.8,85.4,99.7,87.4,97,87.4z M97,70.4H32.1c-2.7,0-4.8-2-4.8-4.5c0-2.5,2.2-4.5,4.8-4.5H97c2.7,0,4.8,2,4.8,4.5
		C101.8,68.4,99.7,70.4,97,70.4z M97,53.4H32.1c-2.7,0-4.8-2-4.8-4.5c0-2.5,2.2-4.5,4.8-4.5H97c2.7,0,4.8,2,4.8,4.5
		C101.8,51.4,99.7,53.4,97,53.4z"/>
</g>
<g class="st0">
	<path class="st1" d="M64.7,4.4c-33.3,0-60.3,27-60.3,60.3s27,60.3,60.3,60.3c13.8,0,26.6-4.7,36.8-12.5l0,0l23.5,18.7l-0.1-63.6
		l0,0c0-1,0.1-2,0.1-3C125,31.3,98,4.4,64.7,4.4z M90.8,87.7c1.9,1.9,2,4.8,0.2,6.6c-1.8,1.8-4.7,1.7-6.6-0.2L64.6,74.3L44.8,94.1
		c-1.9,1.9-4.8,2-6.6,0.2s-1.7-4.7,0.2-6.6l19.8-19.8L38.4,48.2c-1.9-1.9-2-4.8-0.2-6.6c1.8-1.8,4.7-1.7,6.6,0.2l19.8,19.8
		l19.8-19.8c1.9-1.9,4.8-2,6.6-0.2c1.8,1.8,1.7,4.7-0.2,6.6L71,67.9L90.8,87.7z"/>
</g>
<g class="st0">
	<g class="st1">
		<path d="M96,74.9H31.1c-3.4,0-6.2,2.7-6.2,5.9s2.8,5.9,6.2,5.9H96c3.4,0,6.2-2.7,6.2-5.9C102.3,77.6,99.5,74.9,96,74.9z M96,84
			H31.1c-1.9,0-3.4-1.4-3.4-3.1s1.5-3.1,3.4-3.1H96c1.9,0,3.4,1.4,3.4,3.1C99.4,82.6,97.9,84,96,84z"/>
		<path d="M96,57.9H31.1c-3.4,0-6.2,2.7-6.2,5.9s2.8,5.9,6.2,5.9H96c3.4,0,6.2-2.7,6.2-5.9C102.3,60.6,99.5,57.9,96,57.9z M96,67
			H31.1c-1.9,0-3.4-1.4-3.4-3.1s1.5-3.1,3.4-3.1H96c1.9,0,3.4,1.4,3.4,3.1C99.4,65.6,97.9,67,96,67z"/>
		<path d="M96,40.9H31.1c-3.4,0-6.2,2.7-6.2,5.9s2.8,5.9,6.2,5.9H96c3.4,0,6.2-2.7,6.2-5.9C102.3,43.6,99.5,40.9,96,40.9z M96,50
			H31.1c-1.9,0-3.4-1.4-3.4-3.1s1.5-3.1,3.4-3.1H96c1.9,0,3.4,1.4,3.4,3.1C99.4,48.6,97.9,50,96,50z"/>
		<path d="M114.2,100.3c7.6-10.6,11.7-23,11.7-36.1c0-34-27.7-61.7-61.7-61.7S2.5,30.2,2.5,64.2c0,34,27.7,61.7,61.7,61.7
			c8.7,0,17.2-1.8,25.1-5.4l37.6,12.4L114.2,100.3z M89.2,117.5c-7.7,3.6-16.5,5.6-25,5.6c-32.5,0-58.9-26.4-58.9-58.9
			S31.7,5.3,64.2,5.3s58.9,26.4,58.9,58.9c0,12.7-4.5,25.5-12,35.7l1,2.5l10.1,26L89.2,117.5z"/>
	</g>
</g>
<g class="st0">
	<path class="st1" d="M64.7,4.4c-33.3,0-60.3,27-60.3,60.3s27,60.3,60.3,60.3c13.8,0,26.6-4.7,36.8-12.5l0,0l23.5,18.7l-0.1-63.6
		l0,0c0-1,0.1-2,0.1-3C125,31.3,98,4.4,64.7,4.4z M100.6,48.1L56.5,93.1c-1.1,1.1-2.4,1.5-3.7,1.3c0,0-0.1,0-0.1,0
		c-0.1,0-0.2,0-0.2,0c-1-0.1-2-0.6-2.8-1.5L28.2,69c-1.7-1.9-1.8-4.9-0.1-6.6c1.7-1.7,4.5-1.6,6.2,0.3l19,21.1l41.4-42.2
		c1.8-1.8,4.6-1.9,6.2-0.1C102.5,43.3,102.4,46.3,100.6,48.1z"/>
</g>
<g class="st0">
	<g class="st1">
		<path d="M92.9,54.9c-5.7,0-10.4,4.7-10.4,10.4c0,5.7,4.7,10.4,10.4,10.4c5.7,0,10.4-4.7,10.4-10.4C103.3,59.6,98.6,54.9,92.9,54.9
			z M92.9,72.9c-4.2,0-7.5-3.4-7.5-7.5c0-4.2,3.4-7.6,7.5-7.6s7.5,3.4,7.5,7.6C100.4,69.5,97,72.9,92.9,72.9z"/>
		<path d="M64.1,54.9c-5.7,0-10.4,4.7-10.4,10.4c0,5.7,4.7,10.4,10.4,10.4c5.7,0,10.4-4.7,10.4-10.4S69.8,54.9,64.1,54.9z
			 M64.1,72.9c-4.2,0-7.5-3.4-7.5-7.5c0-4.2,3.4-7.6,7.5-7.6s7.5,3.4,7.5,7.6C71.6,69.5,68.3,72.9,64.1,72.9z"/>
		<path d="M35.3,54.9c-5.7,0-10.4,4.7-10.4,10.4c0,5.7,4.7,10.4,10.4,10.4S45.7,71,45.7,65.3S41,54.9,35.3,54.9z M35.3,72.9
			c-4.2,0-7.5-3.4-7.5-7.5c0-4.2,3.4-7.6,7.5-7.6s7.5,3.4,7.5,7.6C42.9,69.5,39.5,72.9,35.3,72.9z"/>
		<path d="M126.3,66.8L126.3,66.8c0-1,0.1-2,0.1-2.9c0-34-27.7-61.7-61.7-61.7S3,29.9,3,63.9s27.7,61.7,61.7,61.7
			c13.4,0,26-4.2,36.7-12.1l25,19.9L126.3,66.8z M123.5,71.9l0.1,55.5l-22.1-17.6c-10.4,8-23.6,12.9-36.7,12.9
			c-32.5,0-58.9-26.4-58.9-58.9S32.2,5,64.7,5s58.9,26.4,58.9,58.9c0,0.9,0,1.9-0.1,2.9L123.5,71.9z"/>
	</g>
</g>
<g class="st0">
	<g class="st1">
		<path d="M59.8,80.5h7.7c2.3,0,3.1-1.5,3.1-2.9V37.5c0-1.3-0.8-2.8-3.1-2.8h-7.7c-2.3,0-3.1,1.5-3.1,2.8v40.2
			C56.7,79,57.5,80.5,59.8,80.5z M59.5,77.6l0-40.1c0.1,0,0.2,0,0.3,0h7.7c0.1,0,0.2,0,0.3,0v40.1c0,0,0,0,0,0c-0.1,0-0.2,0-0.3,0
			h-7.7C59.7,77.7,59.6,77.7,59.5,77.6C59.5,77.6,59.5,77.6,59.5,77.6z"/>
		<path d="M63.7,81.1c-4.6,0-7.7,2.8-7.7,6.8c0,4.1,3.2,6.9,7.7,6.9c4.5,0,7.8-2.9,7.8-6.9C71.5,83.9,68.3,81.1,63.7,81.1z M63.7,92
			c-3,0-4.9-1.6-4.9-4.1c0-2.4,1.9-4,4.9-4c3,0,5,1.6,5,4C68.7,90.4,66.7,92,63.7,92z"/>
		<path d="M114.2,100.3c7.6-10.6,11.7-23,11.7-36.1c0-34-27.7-61.7-61.7-61.7S2.5,30.2,2.5,64.2c0,34,27.7,61.7,61.7,61.7
			c8.7,0,17.2-1.8,25.1-5.4l37.6,12.4L114.2,100.3z M89.2,117.5c-7.7,3.6-16.5,5.6-25,5.6c-32.5,0-58.9-26.4-58.9-58.9
			S31.7,5.3,64.2,5.3s58.9,26.4,58.9,58.9c0,12.7-4.5,25.5-12,35.7l1,2.5l10.1,26L89.2,117.5z"/>
	</g>
</g>
<g class="st0">
	<path class="st1" d="M64.7,4.4c-33.3,0-60.3,27-60.3,60.3s27,60.3,60.3,60.3c13.8,0,26.6-4.7,36.8-12.5l0,0l23.5,18.7l-0.1-63.6
		l0,0c0-1,0.1-2,0.1-3C125,31.3,98,4.4,64.7,4.4z M64,95.6c-4.1,0-6.8-2.2-6.8-5.3S59.9,85,64,85c4.1,0,6.9,2.1,6.9,5.3
		S68.1,95.6,64,95.6z M69.9,77.7v2c0,0.9-0.7,1.3-1.8,1.3h-8.3c-1.1,0-1.8-0.5-1.8-1.3v-2C58,63,70.8,62.2,70.8,53
		c0-3-1.7-5.6-6-5.6c-3.9,0-5.9,2.3-6.3,6.1c0,0.9-0.7,1.4-1.8,1.4h-8c-1.1,0-1.8-0.5-1.7-1.4C47.5,44.7,54.4,39,64.3,39
		c10.8,0,18.2,5.4,18.2,13.5C82.5,65.3,69.9,66.7,69.9,77.7z"/>
</g>
<g class="st0">
	<g class="st1">
		<path d="M92.3,54.9c-5.7,0-10.4,4.7-10.4,10.4c0,5.7,4.7,10.4,10.4,10.4c5.7,0,10.4-4.7,10.4-10.4S98,54.9,92.3,54.9z M92.3,72.9
			c-4.2,0-7.5-3.4-7.5-7.5c0-4.2,3.4-7.6,7.5-7.6s7.5,3.4,7.5,7.6C99.8,69.5,96.5,72.9,92.3,72.9z"/>
		<path d="M34.7,54.9c-5.7,0-10.4,4.7-10.4,10.4c0,5.7,4.7,10.4,10.4,10.4S45.1,71,45.1,65.3C45.1,59.6,40.5,54.9,34.7,54.9z
			 M34.7,72.9c-4.2,0-7.5-3.4-7.5-7.5c0-4.2,3.4-7.6,7.5-7.6s7.5,3.4,7.5,7.6C42.3,69.5,38.9,72.9,34.7,72.9z"/>
		<path d="M63.5,54.9c-5.7,0-10.4,4.7-10.4,10.4c0,5.7,4.7,10.4,10.4,10.4c5.7,0,10.4-4.7,10.4-10.4S69.2,54.9,63.5,54.9z
			 M63.5,72.9c-4.2,0-7.5-3.4-7.5-7.5c0-4.2,3.4-7.6,7.5-7.6s7.5,3.4,7.5,7.6C71.1,69.5,67.7,72.9,63.5,72.9z"/>
		<path d="M114.2,100.3c7.6-10.6,11.7-23,11.7-36.1c0-34-27.7-61.7-61.7-61.7S2.5,30.2,2.5,64.2c0,34,27.7,61.7,61.7,61.7
			c8.7,0,17.2-1.8,25.1-5.4l37.6,12.4L114.2,100.3z M89.2,117.5c-7.7,3.6-16.5,5.6-25,5.6c-32.5,0-58.9-26.4-58.9-58.9
			S31.7,5.3,64.2,5.3s58.9,26.4,58.9,58.9c0,12.7-4.5,25.5-12,35.7l1,2.5l10.1,26L89.2,117.5z"/>
	</g>
</g>
<g class="st0">
	<path class="st1" d="M64.7,4.4c-33.3,0-60.3,27-60.3,60.3s27,60.3,60.3,60.3c13.8,0,26.6-4.7,36.8-12.5l0,0l23.5,18.7l-0.1-63.6
		l0,0c0-1,0.1-2,0.1-3C125,31.3,98,4.4,64.7,4.4z M59.1,39.3c0-0.9,0.6-1.4,1.7-1.4h7.7c1.1,0,1.7,0.5,1.7,1.4v40.2
		c0,1-0.6,1.4-1.7,1.4h-7.7c-1.1,0-1.7-0.5-1.7-1.4V39.3z M64.7,95.2c-3.8,0-6.3-2.3-6.3-5.5s2.6-5.4,6.3-5.4c3.8,0,6.4,2.2,6.4,5.4
		S68.5,95.2,64.7,95.2z"/>
</g>
<g class="st0">
	<path class="st1" d="M113.1,100.5c7.4-10,11.9-22.4,11.9-35.9c0-33.3-27-60.3-60.3-60.3c-33.3,0-60.3,27-60.3,60.3
		c0,33.3,27,60.3,60.3,60.3c9,0,17.5-2,25.1-5.5l0,0l35.2,11.7L113.1,100.5L113.1,100.5z M35.7,77.3c-5,0-9-4-9-9c0-5,4-9,9-9
		s9,4,9,9S40.7,77.3,35.7,77.3z M64.5,77.3c-5,0-9-4-9-9c0-5,4-9,9-9c5,0,9,4,9,9C73.5,73.3,69.5,77.3,64.5,77.3z M93.3,77.3
		c-5,0-9-4-9-9c0-5,4-9,9-9c5,0,9,4,9,9S98.2,77.3,93.3,77.3z"/>
</g>
<g class="st0">
	<g class="st1">
		<path d="M60.3,79.9H68c2.3,0,3.1-1.5,3.1-2.9V36.9c0-1.3-0.8-2.8-3.1-2.8h-7.7c-2.3,0-3.1,1.5-3.1,2.8V77
			C57.2,78.4,58,79.9,60.3,79.9z M60,77L60,37c0.1,0,0.2,0,0.3,0H68c0.1,0,0.2,0,0.3,0V77c0,0,0,0,0,0c-0.1,0-0.2,0-0.3,0h-7.7
			C60.2,77.1,60.1,77.1,60,77C60,77,60,77,60,77z"/>
		<path d="M64.2,80.5c-4.6,0-7.7,2.8-7.7,6.8c0,4.1,3.2,6.9,7.7,6.9c4.5,0,7.8-2.9,7.8-6.9C72,83.3,68.8,80.5,64.2,80.5z M64.2,91.4
			c-3,0-4.9-1.6-4.9-4.1c0-2.4,1.9-4,4.9-4c3,0,5,1.6,5,4C69.2,89.8,67.2,91.4,64.2,91.4z"/>
		<path d="M126.3,66.8L126.3,66.8c0-1,0.1-2,0.1-2.9c0-34-27.7-61.7-61.7-61.7S3,29.9,3,63.9s27.7,61.7,61.7,61.7
			c13.4,0,26-4.2,36.7-12.1l25,19.9L126.3,66.8z M123.5,71.9l0.1,55.5l-22.1-17.6c-10.4,8-23.6,12.9-36.7,12.9
			c-32.5,0-58.9-26.4-58.9-58.9S32.2,5,64.7,5s58.9,26.4,58.9,58.9c0,0.9,0,1.9-0.1,2.9L123.5,71.9z"/>
	</g>
</g>
<g class="st0">
	<g class="st1">
		<path d="M63.5,81c-4.9,0-8.2,2.7-8.2,6.7c0,4,3.4,6.7,8.2,6.7c4.8,0,8.4-2.8,8.4-6.7C71.9,83.8,68.4,81,63.5,81z M63.5,91.6
			c-3.2,0-5.4-1.6-5.4-3.9c0-2.3,2.1-3.8,5.4-3.8c3.3,0,5.5,1.5,5.5,3.8C69,90,66.8,91.6,63.5,91.6z"/>
		<path d="M63.8,35C53.2,35,45.6,41.4,45,50.9c-0.1,0.8,0.1,1.5,0.6,2c0.4,0.4,1.2,1,2.5,1h8c2.2,0,3.2-1.4,3.2-2.7
			c0.4-3.3,1.9-4.8,4.9-4.8c3.8,0,4.6,2.3,4.6,4.1c0,3.4-2.1,5.5-4.8,8.1c-3.5,3.4-7.9,7.7-7.9,16.6v2c0,1.4,1,2.8,3.3,2.8h8.3
			c2.2,0,3.3-1.4,3.3-2.8v-2c0-4.8,2.6-7.5,5.5-10.6c3.3-3.5,7-7.4,7-14.6C83.4,41,75.5,35,63.8,35z M74.3,62.6
			c-3.1,3.3-6.3,6.7-6.3,12.6V77c-0.1,0-0.2,0-0.4,0h-8.3c-0.2,0-0.3,0-0.4,0v-1.8c0-7.7,3.6-11.2,7.1-14.6
			c2.9-2.8,5.7-5.5,5.7-10.2c0-3.4-2-7-7.4-7c-4.5,0-7.2,2.6-7.7,7.4l0,0.1c-0.1,0-0.2,0-0.4,0h-8c-0.1,0-0.2,0-0.3,0
			c0.6-8,6.9-13.1,16-13.1c10,0,16.7,4.8,16.7,12.1C80.6,56,77.5,59.2,74.3,62.6z"/>
		<path d="M126.3,66.8L126.3,66.8c0-1,0.1-2,0.1-2.9c0-34-27.7-61.7-61.7-61.7S3,29.9,3,63.9s27.7,61.7,61.7,61.7
			c13.4,0,26-4.2,36.7-12.1l25,19.9L126.3,66.8z M123.5,71.9l0.1,55.5l-22.1-17.6c-10.4,8-23.6,12.9-36.7,12.9
			c-32.5,0-58.9-26.4-58.9-58.9S32.2,5,64.7,5s58.9,26.4,58.9,58.9c0,0.9,0,1.9-0.1,2.9L123.5,71.9z"/>
	</g>
</g>
<g class="st0">
	<path class="st1" d="M64.7,4.4c-33.3,0-60.3,27-60.3,60.3c0,33.3,27,60.3,60.3,60.3c9,0,17.5-2,25.1-5.5l0,0l35.2,11.7l-11.8-30.6
		l0,0c7.4-10,11.9-22.4,11.9-35.9C125,31.4,98,4.4,64.7,4.4z M97,88.4H32.1c-2.7,0-4.8-2-4.8-4.5s2.2-4.5,4.8-4.5H97
		c2.7,0,4.8,2,4.8,4.5S99.7,88.4,97,88.4z M97,71.4H32.1c-2.7,0-4.8-2-4.8-4.5c0-2.5,2.2-4.5,4.8-4.5H97c2.7,0,4.8,2,4.8,4.5
		C101.8,69.4,99.7,71.4,97,71.4z M97,54.4H32.1c-2.7,0-4.8-2-4.8-4.5c0-2.5,2.2-4.5,4.8-4.5H97c2.7,0,4.8,2,4.8,4.5
		C101.8,52.4,99.7,54.4,97,54.4z"/>
</g>
<g class="st0">
	<g class="st1">
		<path d="M126.4,133.3l-25-19.9c-10.7,7.9-23.4,12.1-36.7,12.1C30.7,125.6,3,97.9,3,63.9S30.7,2.2,64.7,2.2s61.7,27.7,61.7,61.7
			c0,0.9,0,1.9-0.1,2.9v0L126.4,133.3z M123.6,127.5l-0.1-55.5l0-5.2c0-1,0.1-2,0.1-2.9C123.6,31.4,97.2,5,64.7,5S5.8,31.4,5.8,63.9
			s26.4,58.9,58.9,58.9c13.1,0,26.4-4.9,36.7-12.9L123.6,127.5z"/>
	</g>
</g>
<g class="st0">
	<path class="st1" d="M64.7,4.4c-33.3,0-60.3,27-60.3,60.3s27,60.3,60.3,60.3c13.8,0,26.6-4.7,36.8-12.5l0,0l23.5,18.7l-0.1-63.6
		l0,0c0-1,0.1-2,0.1-3C125,31.3,98,4.4,64.7,4.4z"/>
</g>
<g class="st0">
	<g class="st1">
		<path d="M63.7,35.6c-10.6,0-18.2,6.4-18.8,15.8c-0.1,0.8,0.1,1.5,0.6,2c0.4,0.4,1.2,1,2.5,1h8c2.2,0,3.2-1.4,3.2-2.7
			c0.4-3.3,1.9-4.8,4.9-4.8c3.8,0,4.6,2.3,4.6,4.1c0,3.4-2.1,5.5-4.8,8.1c-3.5,3.4-7.9,7.7-7.9,16.6v2c0,1.4,1,2.8,3.3,2.8h8.3
			c2.2,0,3.3-1.4,3.3-2.8v-2c0-4.8,2.6-7.5,5.5-10.6c3.3-3.5,7-7.4,7-14.6C83.3,41.6,75.4,35.6,63.7,35.6z M74.3,63.2
			c-3.1,3.3-6.3,6.7-6.3,12.6v1.9c-0.1,0-0.2,0-0.4,0h-8.3c-0.2,0-0.3,0-0.4,0v-1.8c0-7.7,3.6-11.2,7.1-14.6
			c2.9-2.8,5.7-5.5,5.7-10.2c0-3.4-2-7-7.4-7c-4.5,0-7.2,2.6-7.7,7.4l0,0.1c-0.1,0-0.2,0-0.4,0h-8c-0.1,0-0.2,0-0.3,0
			c0.6-8,6.9-13.1,16-13.1c10,0,16.7,4.8,16.7,12.1C80.5,56.6,77.5,59.8,74.3,63.2z"/>
		<path d="M124.5,129.8c-8.6-7.1-14.3-14.4-16.9-21.6c11.7-11.7,18.2-27.1,18.2-43.7c0-34-27.7-61.7-61.7-61.7S2.4,30.4,2.4,64.5
			s27.7,61.7,61.7,61.7c7.7,0,15.2-1.4,22.3-4.2c9.4,7.1,19.7,10.8,30.7,10.8c0,0,0,0,0,0c2.2,0,4.5-0.2,6.7-0.5l3.2-0.4
			L124.5,129.8z M117.1,129.9L117.1,129.9c-10.6,0-20.5-3.6-29.6-10.7l-0.6-0.5l-0.8,0.3c-7,2.8-14.4,4.3-22,4.3
			c-32.4,0-58.8-26.4-58.8-58.8C5.2,32,31.6,5.6,64.1,5.6c32.4,0,58.8,26.4,58.8,58.8c0,16.1-6.4,31.1-17.9,42.3l-0.6,0.6l0.3,0.8
			c2.4,7.4,7.5,14.5,15.5,21.6C119.1,129.9,118.1,129.9,117.1,129.9z"/>
		<path d="M63.4,81.6c-4.9,0-8.2,2.7-8.2,6.7c0,4,3.4,6.7,8.2,6.7c4.8,0,8.4-2.8,8.4-6.7C71.8,84.3,68.4,81.6,63.4,81.6z M63.4,92.2
			c-3.2,0-5.4-1.6-5.4-3.9c0-2.3,2.1-3.8,5.4-3.8c3.3,0,5.5,1.5,5.5,3.8C69,90.6,66.7,92.2,63.4,92.2z"/>
	</g>
</g>
<g class="st0">
	<g class="st1">
		<path d="M126.9,133l-37.6-12.4c-7.9,3.5-16.4,5.4-25.1,5.4c-34,0-61.7-27.7-61.7-61.7c0-34,27.7-61.7,61.7-61.7
			s61.7,27.7,61.7,61.7c0,13.1-4,25.5-11.7,36.1L126.9,133z M122.1,128.4l-10.1-26l-1-2.5c7.6-10.2,12-23,12-35.7
			c0-32.5-26.4-58.9-58.9-58.9S5.3,31.8,5.3,64.2s26.4,58.9,58.9,58.9c8.5,0,17.3-2,25-5.6L122.1,128.4z"/>
	</g>
</g>
<g class="st0">
	<path class="st1" d="M64.7,4.4c-33.3,0-60.3,27-60.3,60.3c0,33.3,27,60.3,60.3,60.3c9,0,17.5-2,25.1-5.5l0,0l35.2,11.7l-11.8-30.6
		l0,0c7.4-10,11.9-22.4,11.9-35.9C125,31.4,98,4.4,64.7,4.4z M90.8,88.7c1.9,1.9,2,4.8,0.2,6.6c-1.8,1.8-4.7,1.7-6.6-0.2L64.6,75.3
		L44.8,95.1c-1.9,1.9-4.8,2-6.6,0.2s-1.7-4.7,0.2-6.6l19.8-19.8L38.4,49.2c-1.9-1.9-2-4.8-0.2-6.6c1.8-1.8,4.7-1.7,6.6,0.2
		l19.8,19.8l19.8-19.8c1.9-1.9,4.8-2,6.6-0.2c1.8,1.8,1.7,4.7-0.2,6.6L71,68.9L90.8,88.7z"/>
</g>
<g class="st0">
	<path class="st1" d="M64.7,4.4c-33.3,0-60.3,27-60.3,60.3c0,33.3,27,60.3,60.3,60.3c9,0,17.5-2,25.1-5.5l0,0l35.2,11.7l-11.8-30.6
		l0,0c7.4-10,11.9-22.4,11.9-35.9C125,31.4,98,4.4,64.7,4.4z M100.6,49.1L56.5,94.1c-1.1,1.1-2.4,1.5-3.7,1.3c0,0-0.1,0-0.1,0
		c-0.1,0-0.2,0-0.2,0c-1-0.1-2-0.6-2.8-1.5L28.2,70c-1.7-1.9-1.8-4.9-0.1-6.6c1.7-1.7,4.5-1.6,6.2,0.3l19,21.1l41.4-42.2
		c1.8-1.8,4.6-1.9,6.2-0.1C102.5,44.3,102.4,47.3,100.6,49.1z"/>
</g>
<g class="st0">
	<path class="st1" d="M64.7,4.4c-33.3,0-60.3,27-60.3,60.3c0,33.3,27,60.3,60.3,60.3c9,0,17.5-2,25.1-5.5l0,0l35.2,11.7l-11.8-30.6
		l0,0c7.4-10,11.9-22.4,11.9-35.9C125,31.4,98,4.4,64.7,4.4z M64,96.6c-4.1,0-6.8-2.2-6.8-5.3S59.9,86,64,86c4.1,0,6.9,2.1,6.9,5.3
		S68.1,96.6,64,96.6z M69.9,78.7v2c0,0.9-0.7,1.3-1.8,1.3h-8.3c-1.1,0-1.8-0.5-1.8-1.3v-2C58,64,70.8,63.2,70.8,54.1
		c0-3-1.7-5.6-6-5.6c-3.9,0-5.9,2.3-6.3,6.1c0,0.9-0.7,1.4-1.8,1.4h-8c-1.1,0-1.8-0.5-1.7-1.4C47.5,45.7,54.4,40,64.3,40
		c10.8,0,18.2,5.4,18.2,13.5C82.5,66.3,69.9,67.7,69.9,78.7z"/>
</g>
<g class="st0">
	<path class="st1" d="M64.7,4.4c-33.3,0-60.3,27-60.3,60.3c0,33.3,27,60.3,60.3,60.3c9,0,17.5-2,25.1-5.5l0,0l35.2,11.7l-11.8-30.6
		l0,0c7.4-10,11.9-22.4,11.9-35.9C125,31.4,98,4.4,64.7,4.4z"/>
</g>
<g class="st0">
	<path class="st1" d="M64.7,4.4c-33.3,0-60.3,27-60.3,60.3c0,33.3,27,60.3,60.3,60.3c9,0,17.5-2,25.1-5.5l0,0l35.2,11.7l-11.8-30.6
		l0,0c7.4-10,11.9-22.4,11.9-35.9C125,31.4,98,4.4,64.7,4.4z M59.1,40.3c0-0.9,0.6-1.4,1.7-1.4h7.7c1.1,0,1.7,0.5,1.7,1.4v40.2
		c0,1-0.6,1.4-1.7,1.4h-7.7c-1.1,0-1.7-0.5-1.7-1.4V40.3z M64.7,96.2c-3.8,0-6.3-2.3-6.3-5.5s2.6-5.4,6.3-5.4c3.8,0,6.4,2.2,6.4,5.4
		S68.5,96.2,64.7,96.2z"/>
</g>
<g class="st0">
	<g class="st1">
		<path d="M117.1,132.7C117.1,132.7,117.1,132.7,117.1,132.7c-11,0-21.3-3.6-30.7-10.8c-7.1,2.8-14.6,4.2-22.3,4.2
			c-34,0-61.7-27.7-61.7-61.7S30.1,2.8,64.1,2.8s61.7,27.7,61.7,61.7c0,16.5-6.4,32-18.2,43.7c2.6,7.2,8.3,14.5,16.9,21.6l2.5,2.1
			l-3.2,0.4C121.5,132.6,119.3,132.7,117.1,132.7z M86.8,118.7l0.6,0.5c9.1,7.1,19,10.7,29.6,10.7h0c1,0,2,0,3.1-0.1
			c-8-7.1-13.1-14.2-15.5-21.6l-0.3-0.8l0.6-0.6c11.6-11.2,17.9-26.2,17.9-42.3c0-32.4-26.4-58.8-58.8-58.8
			C31.6,5.6,5.2,32,5.2,64.5c0,32.4,26.4,58.8,58.8,58.8c7.6,0,15-1.4,22-4.3L86.8,118.7z M52.8,93.8c-0.2,0-0.4,0-0.6,0l-0.3,0
			c-0.1,0-0.1,0-0.2,0c-1.4-0.2-2.7-0.9-3.6-1.9L26.6,67.9c-2.2-2.5-2.2-6.3,0-8.5c1-1,2.4-1.6,3.9-1.6c1.6,0,3.2,0.7,4.4,2l18,20
			l40.4-41.2c1.2-1.2,2.7-1.8,4.2-1.8c1.6,0,3,0.6,4,1.8c2.1,2.3,1.9,6.2-0.4,8.5L57,92C55.9,93.2,54.4,93.8,52.8,93.8z M52.3,91
			L52.3,91c0.2,0,0.4,0,0.5,0c0.8,0,1.6-0.3,2.2-1L99,45.1c1.3-1.3,1.4-3.4,0.3-4.7c-1-1.2-3-1.1-4.1,0.1L52.7,83.9l-20-22.2
			c-1.1-1.3-3.1-1.4-4.1-0.3c-1.2,1.2-1.1,3.3,0.1,4.7l21.5,23.9c0.7,0.7,1.4,1,1.9,1L52.3,91z"/>
	</g>
</g>
<g class="st0">
	<path class="st1" d="M106.6,107.8c11.3-11,18.4-26.3,18.4-43.3c0-33.3-27-60.3-60.3-60.3c-33.3,0-60.3,27-60.3,60.3
		s27,60.3,60.3,60.3c8,0,15.6-1.6,22.5-4.4c8.5,6.6,21,12.7,37,10.5C114.1,122.5,108.9,114.8,106.6,107.8z M35.9,74.3c-5,0-9-4-9-9
		s4-9,9-9s9,4,9,9S40.9,74.3,35.9,74.3z M64.7,74.3c-5,0-9-4-9-9s4-9,9-9c5,0,9,4,9,9S69.7,74.3,64.7,74.3z M93.5,74.3c-5,0-9-4-9-9
		s4-9,9-9c5,0,9,4,9,9S98.4,74.3,93.5,74.3z"/>
</g>
<g class="st0">
	<path class="st1" d="M64.7,4.2c-33.3,0-60.3,27-60.3,60.3s27,60.3,60.3,60.3c8,0,15.6-1.6,22.5-4.4c8.5,6.6,21,12.7,37,10.5
		c-10.1-8.4-15.3-16.1-17.6-23.1c11.3-11,18.4-26.3,18.4-43.3C125,31.2,98,4.2,64.7,4.2z M97.2,85.4H32.2c-2.7,0-4.8-2-4.8-4.5
		c0-2.5,2.2-4.5,4.8-4.5h64.9c2.7,0,4.8,2,4.8,4.5C102,83.4,99.8,85.4,97.2,85.4z M97.2,68.4H32.2c-2.7,0-4.8-2-4.8-4.5
		c0-2.5,2.2-4.5,4.8-4.5h64.9c2.7,0,4.8,2,4.8,4.5C102,66.4,99.8,68.4,97.2,68.4z M97.2,51.4H32.2c-2.7,0-4.8-2-4.8-4.5
		c0-2.5,2.2-4.5,4.8-4.5h64.9c2.7,0,4.8,2,4.8,4.5C102,49.4,99.8,51.4,97.2,51.4z"/>
</g>
<g class="st0">
	<g class="st1">
		<path d="M117.1,132.7C117.1,132.7,117.1,132.7,117.1,132.7c-11,0-21.3-3.6-30.7-10.8c-7.1,2.8-14.6,4.2-22.3,4.2
			c-34,0-61.7-27.7-61.7-61.7S30.1,2.8,64.1,2.8s61.7,27.7,61.7,61.7c0,16.5-6.4,32-18.2,43.7c2.6,7.2,8.3,14.5,16.9,21.6l2.5,2.1
			l-3.2,0.4C121.5,132.6,119.3,132.7,117.1,132.7z M86.8,118.7l0.6,0.5c9.1,7.1,19,10.7,29.6,10.7h0c1,0,2,0,3.1-0.1
			c-8-7.1-13.1-14.2-15.5-21.6l-0.3-0.8l0.6-0.6c11.6-11.2,17.9-26.2,17.9-42.3c0-32.4-26.4-58.8-58.8-58.8
			C31.6,5.6,5.2,32,5.2,64.5c0,32.4,26.4,58.8,58.8,58.8c7.6,0,15-1.4,22-4.3L86.8,118.7z M92.9,75.7c-5.7,0-10.4-4.7-10.4-10.4
			c0-5.7,4.7-10.4,10.4-10.4c5.7,0,10.4,4.7,10.4,10.4C103.3,71,98.6,75.7,92.9,75.7z M92.9,57.8c-4.2,0-7.5,3.4-7.5,7.6
			c0,4.2,3.4,7.5,7.5,7.5s7.5-3.4,7.5-7.5C100.4,61.2,97,57.8,92.9,57.8z M64.1,75.7c-5.7,0-10.4-4.7-10.4-10.4
			c0-5.7,4.7-10.4,10.4-10.4c5.7,0,10.4,4.7,10.4,10.4C74.5,71,69.8,75.7,64.1,75.7z M64.1,57.8c-4.2,0-7.5,3.4-7.5,7.6
			c0,4.2,3.4,7.5,7.5,7.5s7.5-3.4,7.5-7.5C71.6,61.2,68.3,57.8,64.1,57.8z M35.3,75.7c-5.7,0-10.4-4.7-10.4-10.4
			c0-5.7,4.7-10.4,10.4-10.4s10.4,4.7,10.4,10.4C45.7,71,41,75.7,35.3,75.7z M35.3,57.8c-4.2,0-7.5,3.4-7.5,7.6
			c0,4.2,3.4,7.5,7.5,7.5s7.5-3.4,7.5-7.5C42.9,61.2,39.5,57.8,35.3,57.8z"/>
	</g>
</g>
<g class="st0">
	<path class="st1" d="M64.7,4.2c-33.3,0-60.3,27-60.3,60.3s27,60.3,60.3,60.3c8,0,15.6-1.6,22.5-4.4c8.5,6.6,21,12.7,37,10.5
		c-10.1-8.4-15.3-16.1-17.6-23.1c11.3-11,18.4-26.3,18.4-43.3C125,31.2,98,4.2,64.7,4.2z M90.9,85.7c1.9,1.9,2,4.8,0.2,6.6
		c-1.8,1.8-4.7,1.7-6.6-0.2L64.7,72.3L44.9,92.1c-1.9,1.9-4.8,2-6.6,0.2s-1.7-4.7,0.2-6.6l19.8-19.8L38.5,46.2
		c-1.9-1.9-2-4.8-0.2-6.6c1.8-1.8,4.7-1.7,6.6,0.2l19.8,19.8l19.8-19.8c1.9-1.9,4.8-2,6.6-0.2c1.8,1.8,1.7,4.7-0.2,6.6L71.1,65.9
		L90.9,85.7z"/>
</g>
<g class="st0">
	<path class="st1" d="M64.7,4.2c-33.3,0-60.3,27-60.3,60.3s27,60.3,60.3,60.3c8,0,15.6-1.6,22.5-4.4c8.5,6.6,21,12.7,37,10.5
		c-10.1-8.4-15.3-16.1-17.6-23.1c11.3-11,18.4-26.3,18.4-43.3C125,31.2,98,4.2,64.7,4.2z M100.7,46.1L56.6,91.1
		c-1.1,1.1-2.4,1.5-3.7,1.3c0,0-0.1,0-0.1,0c-0.1,0-0.2,0-0.2,0c-1-0.1-2-0.6-2.8-1.5L28.3,67c-1.7-1.9-1.8-4.9-0.1-6.6
		c1.7-1.7,4.5-1.6,6.2,0.3l19,21.1l41.4-42.2c1.8-1.8,4.6-1.9,6.2-0.1C102.6,41.3,102.5,44.3,100.7,46.1z"/>
</g>
<g class="st0">
	<g class="st1">
		<path d="M117.1,132.7C117.1,132.7,117.1,132.7,117.1,132.7c-11,0-21.3-3.6-30.7-10.8c-7.1,2.8-14.6,4.2-22.3,4.2
			c-34,0-61.7-27.7-61.7-61.7S30.1,2.8,64.1,2.8s61.7,27.7,61.7,61.7c0,16.5-6.4,32-18.2,43.7c2.6,7.2,8.3,14.5,16.9,21.6l2.5,2.1
			l-3.2,0.4C121.5,132.6,119.3,132.7,117.1,132.7z M86.8,118.7l0.6,0.5c9.1,7.1,19,10.7,29.6,10.7h0c1,0,2,0,3.1-0.1
			c-8-7.1-13.1-14.2-15.5-21.6l-0.3-0.8l0.6-0.6c11.6-11.2,17.9-26.2,17.9-42.3c0-32.4-26.4-58.8-58.8-58.8
			C31.6,5.6,5.2,32,5.2,64.5c0,32.4,26.4,58.8,58.8,58.8c7.6,0,15-1.4,22-4.3L86.8,118.7z M96.6,86.8H31.6c-3.4,0-6.2-2.7-6.2-5.9
			s2.8-5.9,6.2-5.9h64.9c3.4,0,6.2,2.7,6.2,5.9S100,86.8,96.6,86.8z M31.6,77.8c-1.9,0-3.4,1.4-3.4,3.1s1.5,3.1,3.4,3.1h64.9
			c1.9,0,3.4-1.4,3.4-3.1s-1.5-3.1-3.4-3.1H31.6z M96.6,69.8H31.6c-3.4,0-6.2-2.7-6.2-5.9c0-3.3,2.8-5.9,6.2-5.9h64.9
			c3.4,0,6.2,2.7,6.2,5.9C102.8,67.2,100,69.8,96.6,69.8z M31.6,60.8c-1.9,0-3.4,1.4-3.4,3.1c0,1.7,1.5,3.1,3.4,3.1h64.9
			c1.9,0,3.4-1.4,3.4-3.1s-1.5-3.1-3.4-3.1H31.6z M96.6,52.8H31.6c-3.4,0-6.2-2.7-6.2-5.9c0-3.3,2.8-5.9,6.2-5.9h64.9
			c3.4,0,6.2,2.7,6.2,5.9C102.8,50.2,100,52.8,96.6,52.8z M31.6,43.8c-1.9,0-3.4,1.4-3.4,3.1c0,1.7,1.5,3.1,3.4,3.1h64.9
			c1.9,0,3.4-1.4,3.4-3.1s-1.5-3.1-3.4-3.1H31.6z"/>
	</g>
</g>
<g class="st0">
	<path class="st1" d="M64.7,4.2c-33.3,0-60.3,27-60.3,60.3s27,60.3,60.3,60.3c8,0,15.6-1.6,22.5-4.4c8.5,6.6,21,12.7,37,10.5
		c-10.1-8.4-15.3-16.1-17.6-23.1c11.3-11,18.4-26.3,18.4-43.3C125,31.2,98,4.2,64.7,4.2z M64,93.6c-4.1,0-6.8-2.2-6.8-5.3
		S60,83,64,83c4.1,0,6.9,2.1,6.9,5.3S68.1,93.6,64,93.6z M70,75.7v2c0,0.9-0.7,1.3-1.8,1.3h-8.3c-1.1,0-1.8-0.5-1.8-1.3v-2
		C58,61,70.8,60.2,70.8,51.1c0-3-1.7-5.6-6-5.6c-3.9,0-5.9,2.3-6.3,6.1c0,0.9-0.7,1.4-1.8,1.4h-8c-1.1,0-1.8-0.5-1.7-1.4
		C47.5,42.7,54.5,37,64.4,37c10.8,0,18.2,5.4,18.2,13.5C82.5,63.3,70,64.7,70,75.7z"/>
</g>
<g class="st0">
	<g class="st1">
		<path d="M117.1,132.7C117.1,132.7,117.1,132.7,117.1,132.7c-11,0-21.3-3.6-30.7-10.8c-7.1,2.8-14.6,4.2-22.3,4.2
			c-34,0-61.7-27.7-61.7-61.7S30.1,2.8,64.1,2.8s61.7,27.7,61.7,61.7c0,16.5-6.4,32-18.2,43.7c2.6,7.2,8.3,14.5,16.9,21.6l2.5,2.1
			l-3.2,0.4C121.5,132.6,119.3,132.7,117.1,132.7z M86.8,118.7l0.6,0.5c9.1,7.1,19,10.7,29.6,10.7h0c1,0,2,0,3.1-0.1
			c-8-7.1-13.1-14.2-15.5-21.6l-0.3-0.8l0.6-0.6c11.6-11.2,17.9-26.2,17.9-42.3c0-32.4-26.4-58.8-58.8-58.8
			C31.6,5.6,5.2,32,5.2,64.5c0,32.4,26.4,58.8,58.8,58.8c7.6,0,15-1.4,22-4.3L86.8,118.7z M87.3,95c-1.7,0-3.3-0.7-4.5-1.9
			L64.1,74.3L45.3,93.1c-1.2,1.2-2.8,1.9-4.5,1.9c-1.6,0-3-0.6-4.1-1.7c-2.3-2.3-2.2-6.2,0.2-8.6l18.8-18.8L36.9,47.2
			c-2.4-2.4-2.5-6.3-0.2-8.6c1.1-1.1,2.5-1.7,4.1-1.7c1.7,0,3.3,0.7,4.5,1.9l18.8,18.8l18.8-18.8c1.2-1.2,2.8-1.9,4.5-1.9
			c1.6,0,3,0.6,4.1,1.7c2.3,2.3,2.2,6.2-0.2,8.6L72.5,65.9l18.8,18.8c2.4,2.4,2.5,6.3,0.2,8.6C90.4,94.4,88.9,95,87.3,95z
			 M64.1,70.3l20.8,20.8c1.3,1.3,3.4,1.4,4.6,0.2c1.2-1.2,1.1-3.3-0.2-4.6L68.5,65.9l20.8-20.8c1.3-1.3,1.4-3.4,0.2-4.6
			c-1.2-1.2-3.3-1.1-4.6,0.2L64.1,61.5L43.3,40.8c-1.3-1.3-3.4-1.4-4.6-0.2c-1.2,1.2-1.1,3.3,0.2,4.6l20.8,20.8L38.9,86.7
			c-1.3,1.3-1.4,3.4-0.2,4.6c1.2,1.2,3.3,1.1,4.6-0.2L64.1,70.3z"/>
	</g>
</g>
<g class="st0">
	<g class="st1">
		<path d="M117.1,132.7C117.1,132.7,117.1,132.7,117.1,132.7c-11,0-21.3-3.6-30.7-10.8c-7.1,2.8-14.6,4.2-22.3,4.2
			c-34,0-61.7-27.7-61.7-61.7S30.1,2.8,64.1,2.8s61.7,27.7,61.7,61.7c0,16.5-6.4,32-18.2,43.7c2.6,7.2,8.3,14.5,16.9,21.6l2.5,2.1
			l-3.2,0.4C121.5,132.6,119.3,132.7,117.1,132.7z M86.8,118.7l0.6,0.5c9.1,7.1,19,10.7,29.6,10.7h0c1,0,2,0,3.1-0.1
			c-8-7.1-13.1-14.2-15.5-21.6l-0.3-0.8l0.6-0.6c11.6-11.2,17.9-26.2,17.9-42.3c0-32.4-26.4-58.8-58.8-58.8
			C31.6,5.6,5.2,32,5.2,64.5c0,32.4,26.4,58.8,58.8,58.8c7.6,0,15-1.4,22-4.3L86.8,118.7z M63.4,95c-4.9,0-8.2-2.8-8.2-6.7
			c0-3.9,3.4-6.7,8.2-6.7c4.9,0,8.4,2.7,8.4,6.7C71.8,92.2,68.3,95,63.4,95z M63.4,84.4c-3.3,0-5.4,1.5-5.4,3.8
			c0,2.3,2.2,3.9,5.4,3.9c3.2,0,5.5-1.6,5.5-3.9C69,86,66.7,84.4,63.4,84.4z M67.5,80.5h-8.3c-2.2,0-3.3-1.4-3.3-2.8v-2
			c0-8.9,4.4-13.2,7.9-16.6c2.7-2.6,4.8-4.7,4.8-8.1c0-1.9-0.8-4.1-4.6-4.1c-3,0-4.5,1.5-4.9,4.8c0,1.4-1.1,2.7-3.2,2.7h-8
			c-1.4,0-2.1-0.5-2.5-1c-0.5-0.5-0.7-1.2-0.6-2c0.7-9.5,8.2-15.8,18.8-15.8c11.7,0,19.6,6,19.6,14.9c0,7.2-3.7,11.1-7,14.6
			c-3,3.2-5.5,5.9-5.5,10.6v2C70.8,79.1,69.8,80.5,67.5,80.5z M58.8,77.6c0.1,0,0.2,0,0.4,0h8.3c0.2,0,0.3,0,0.4,0v-1.9
			c0-5.9,3.2-9.3,6.3-12.6c3.2-3.4,6.2-6.6,6.2-12.7c0-7.2-6.7-12.1-16.7-12.1c-9.1,0-15.4,5.1-16,13.1c0.1,0,0.2,0,0.3,0h8
			c0.2,0,0.3,0,0.4,0l0-0.1c0.5-4.8,3.2-7.4,7.7-7.4c5.5,0,7.4,3.6,7.4,7c0,4.6-2.8,7.3-5.7,10.2c-3.5,3.4-7.1,6.9-7.1,14.6
			L58.8,77.6L58.8,77.6z"/>
	</g>
</g>
<g class="st0">
	<g class="st1">
		<path d="M124.4,128.7c-8.1-6.7-13.5-13.5-16.1-20.2c11.6-11.9,17.9-27.4,17.9-44c0-34.8-28.3-63.1-63.1-63.1S0,29.7,0,64.5
			s28.3,63.1,63.1,63.1c7.6,0,15-1.3,22.1-4c9.5,7,19.9,10.6,30.9,10.6h0c2.3,0,4.6-0.2,6.9-0.5l6.4-0.9L124.4,128.7z M87.4,118.1
			l-1.3-1l-1.5,0.6c-6.8,2.8-14.1,4.2-21.5,4.2c-31.7,0-57.4-25.8-57.4-57.4C5.7,32.8,31.4,7,63.1,7c31.7,0,57.4,25.8,57.4,57.4
			c0,15.7-6.2,30.3-17.5,41.3l-1.3,1.2l0.6,1.7c2.2,6.8,6.6,13.3,13.4,19.8C105.6,128.4,96.1,124.9,87.4,118.1z"/>
		<circle cx="34.3" cy="64.5" r="9"/>
		<circle cx="63.1" cy="64.5" r="9"/>
		<circle cx="91.9" cy="64.5" r="9"/>
	</g>
</g>
<g class="st0">
	<g class="st1">
		<path d="M124.4,128.7c-8.1-6.7-13.5-13.5-16.1-20.2c11.6-11.9,17.9-27.4,17.9-44c0-34.8-28.3-63.1-63.1-63.1S0,29.7,0,64.5
			s28.3,63.1,63.1,63.1c7.6,0,15-1.3,22.1-4c9.5,7,19.9,10.6,30.9,10.6h0c2.3,0,4.6-0.2,6.9-0.5l6.4-0.9L124.4,128.7z M87.4,118.1
			l-1.3-1l-1.5,0.6c-6.8,2.8-14.1,4.2-21.5,4.2c-31.7,0-57.4-25.8-57.4-57.4C5.7,32.8,31.4,7,63.1,7c31.7,0,57.4,25.8,57.4,57.4
			c0,15.7-6.2,30.3-17.5,41.3l-1.3,1.2l0.6,1.7c2.2,6.8,6.6,13.3,13.4,19.8C105.6,128.4,96.1,124.9,87.4,118.1z"/>
		<path d="M95.6,41.5H30.6c-2.7,0-4.8,2-4.8,4.5c0,2.5,2.2,4.5,4.8,4.5h64.9c2.7,0,4.8-2,4.8-4.5C100.4,43.5,98.2,41.5,95.6,41.5z"
			/>
		<path d="M95.6,58.5H30.6c-2.7,0-4.8,2-4.8,4.5c0,2.5,2.2,4.5,4.8,4.5h64.9c2.7,0,4.8-2,4.8-4.5C100.4,60.5,98.2,58.5,95.6,58.5z"
			/>
		<path d="M95.6,75.5H30.6c-2.7,0-4.8,2-4.8,4.5c0,2.5,2.2,4.5,4.8,4.5h64.9c2.7,0,4.8-2,4.8-4.5C100.4,77.5,98.2,75.5,95.6,75.5z"
			/>
	</g>
</g>
<g class="st0">
	<path class="st1" d="M106.6,107.8c11.3-11,18.4-26.3,18.4-43.3c0-33.3-27-60.3-60.3-60.3c-33.3,0-60.3,27-60.3,60.3
		s27,60.3,60.3,60.3c8,0,15.6-1.6,22.5-4.4c8.5,6.6,21,12.7,37,10.5C114.1,122.5,108.9,114.8,106.6,107.8z"/>
</g>
<g>
	<g>
		<path d="M117.1,132.7C117.1,132.7,117.1,132.7,117.1,132.7c-11,0-21.3-3.6-30.7-10.8c-7.1,2.8-14.6,4.2-22.3,4.2
			c-34,0-61.7-27.7-61.7-61.7S30.1,2.8,64.1,2.8c34,0,61.7,27.7,61.7,61.7c0,16.5-6.4,32-18.2,43.7c2.6,7.2,8.3,14.5,16.9,21.6
			l2.5,2.1l-3.2,0.4C121.5,132.6,119.3,132.7,117.1,132.7z M86.8,118.7l0.6,0.5c9.1,7.1,19,10.7,29.6,10.7c0,0,0,0,0,0
			c1,0,2,0,3.1-0.1c-8-7.1-13.1-14.2-15.5-21.6l-0.3-0.8l0.6-0.6c11.6-11.2,17.9-26.2,17.9-42.3c0-32.4-26.4-58.8-58.8-58.8
			C31.6,5.6,5.2,32,5.2,64.5c0,32.4,26.4,58.8,58.8,58.8c7.6,0,15-1.4,22-4.3L86.8,118.7z"/>
	</g>
</g>
<g class="st0">
	<g class="st1">
		<path d="M124.4,128.7c-8.1-6.7-13.5-13.5-16.1-20.2c11.6-11.9,17.9-27.4,17.9-44c0-34.8-28.3-63.1-63.1-63.1S0,29.7,0,64.5
			s28.3,63.1,63.1,63.1c7.6,0,15-1.3,22.1-4c9.5,7,19.9,10.6,30.9,10.6c0,0,0,0,0,0c2.3,0,4.6-0.2,6.9-0.5l6.4-0.9L124.4,128.7z
			 M87.4,118.1l-1.3-1l-1.5,0.6c-6.8,2.8-14.1,4.2-21.5,4.2c-31.7,0-57.4-25.8-57.4-57.4C5.7,32.8,31.4,7,63.1,7
			c31.7,0,57.4,25.8,57.4,57.4c0,15.7-6.2,30.3-17.5,41.3l-1.3,1.2l0.6,1.7c2.2,6.8,6.6,13.3,13.4,19.8
			C105.6,128.4,96.1,124.9,87.4,118.1z"/>
		<path d="M93.2,38.7L51.8,81l-19-21.1c-1.7-1.9-4.5-2.1-6.2-0.3c-1.7,1.7-1.7,4.7,0.1,6.6L48.1,90c0.8,0.9,1.8,1.4,2.8,1.5
			c0.1,0,0.2,0,0.2,0c0,0,0.1,0,0.1,0c1.3,0.2,2.7-0.3,3.7-1.3l44.1-44.9c1.8-1.8,1.9-4.8,0.3-6.6C97.8,36.9,95,36.9,93.2,38.7z"/>
	</g>
</g>
<g class="st0">
	<path class="st1" d="M106.6,107.8c11.3-11,18.4-26.3,18.4-43.3c0-33.3-27-60.3-60.3-60.3c-33.3,0-60.3,27-60.3,60.3
		s27,60.3,60.3,60.3c8,0,15.6-1.6,22.5-4.4c8.5,6.6,21,12.7,37,10.5C114.1,122.5,108.9,114.8,106.6,107.8z M59.1,37.5
		c0-0.9,0.6-1.4,1.7-1.4h7.7c1.1,0,1.7,0.5,1.7,1.4v40.2c0,1-0.6,1.4-1.7,1.4h-7.7c-1.1,0-1.7-0.5-1.7-1.4V37.5z M64.7,93.4
		c-3.8,0-6.3-2.3-6.3-5.5s2.6-5.4,6.3-5.4c3.8,0,6.4,2.2,6.4,5.4S68.4,93.4,64.7,93.4z"/>
</g>
<g class="st0">
	<g class="st1">
		<path d="M124.4,128.7c-8.1-6.7-13.5-13.5-16.1-20.2c11.6-11.9,17.9-27.4,17.9-44c0-34.8-28.3-63.1-63.1-63.1S0,29.7,0,64.5
			s28.3,63.1,63.1,63.1c7.6,0,15-1.3,22.1-4c9.5,7,19.9,10.6,30.9,10.6c0,0,0,0,0,0c2.3,0,4.6-0.2,6.9-0.5l6.4-0.9L124.4,128.7z
			 M87.4,118.1l-1.3-1l-1.5,0.6c-6.8,2.8-14.1,4.2-21.5,4.2c-31.7,0-57.4-25.8-57.4-57.4C5.7,32.8,31.4,7,63.1,7
			c31.7,0,57.4,25.8,57.4,57.4c0,15.7-6.2,30.3-17.5,41.3l-1.3,1.2l0.6,1.7c2.2,6.8,6.6,13.3,13.4,19.8
			C105.6,128.4,96.1,124.9,87.4,118.1z"/>
		<path d="M89.5,38.7c-1.8-1.8-4.7-1.7-6.6,0.2L63.1,58.7L43.3,38.9c-1.9-1.9-4.8-2-6.6-0.2c-1.8,1.8-1.7,4.7,0.2,6.6l19.8,19.8
			L36.9,84.8c-1.9,1.9-2,4.8-0.2,6.6s4.7,1.7,6.6-0.2l19.8-19.8l19.8,19.8c1.9,1.9,4.8,2,6.6,0.2c1.8-1.8,1.7-4.7-0.2-6.6L69.5,65.1
			l19.8-19.8C91.1,43.4,91.2,40.5,89.5,38.7z"/>
	</g>
</g>
<g class="st0">
	<g class="st1">
		<path d="M117.1,132.7L117.1,132.7c-11,0-21.3-3.6-30.7-10.8c-7.1,2.8-14.6,4.2-22.3,4.2c-34,0-61.7-27.7-61.7-61.7
			S30.1,2.8,64.1,2.8s61.7,27.7,61.7,61.7c0,16.5-6.4,32-18.2,43.7c2.6,7.2,8.3,14.5,16.9,21.6l2.5,2.1l-3.2,0.4
			C121.5,132.6,119.3,132.7,117.1,132.7z M86.8,118.7l0.6,0.5c9.1,7.1,19,10.7,29.6,10.7h0c1,0,2,0,3.1-0.1
			c-8-7.1-13.1-14.2-15.5-21.6l-0.3-0.8l0.6-0.6c11.6-11.2,17.9-26.2,17.9-42.3c0-32.4-26.4-58.8-58.8-58.8
			C31.6,5.6,5.2,32,5.2,64.5c0,32.4,26.4,58.8,58.8,58.8c7.6,0,15-1.4,22-4.3L86.8,118.7z M64,94.8c-4.6,0-7.7-2.8-7.7-6.9
			c0-4,3.2-6.8,7.7-6.8c4.6,0,7.8,2.8,7.8,6.8C71.9,91.9,68.6,94.8,64,94.8z M64,84c-3,0-4.9,1.6-4.9,4c0,2.5,1.9,4.1,4.9,4.1
			c3,0,5-1.6,5-4.1C69,85.6,67,84,64,84z M67.9,80.5h-7.7c-2.3,0-3.1-1.5-3.1-2.9V37.5c0-1.3,0.8-2.8,3.1-2.8h7.7
			c2.3,0,3.1,1.5,3.1,2.8v40.2C71,79,70.2,80.5,67.9,80.5z M59.9,77.6c0.1,0,0.2,0,0.3,0h7.7c0.1,0,0.2,0,0.3,0c0,0,0,0,0,0V37.6
			c-0.1,0-0.2,0-0.3,0h-7.7c-0.1,0-0.2,0-0.3,0L59.9,77.6C59.9,77.6,59.9,77.6,59.9,77.6z"/>
	</g>
</g>
<g class="st0">
	<g class="st1">
		<path d="M124.4,128.7c-8.1-6.7-13.5-13.5-16.1-20.2c11.6-11.9,17.9-27.4,17.9-44c0-34.8-28.3-63.1-63.1-63.1S0,29.7,0,64.5
			s28.3,63.1,63.1,63.1c7.6,0,15-1.3,22.1-4c9.5,7,19.9,10.6,30.9,10.6c0,0,0,0,0,0c2.3,0,4.6-0.2,6.9-0.5l6.4-0.9L124.4,128.7z
			 M87.4,118.1l-1.3-1l-1.5,0.6c-6.8,2.8-14.1,4.2-21.5,4.2c-31.7,0-57.4-25.8-57.4-57.4C5.7,32.8,31.4,7,63.1,7
			c31.7,0,57.4,25.8,57.4,57.4c0,15.7-6.2,30.3-17.5,41.3l-1.3,1.2l0.6,1.7c2.2,6.8,6.6,13.3,13.4,19.8
			C105.6,128.4,96.1,124.9,87.4,118.1z"/>
		<path d="M62.4,82.2c-4.1,0-6.8,2.1-6.8,5.2s2.8,5.3,6.8,5.3c4.1,0,6.9-2.2,6.9-5.3S66.5,82.2,62.4,82.2z"/>
		<path d="M62.8,36.2c-9.9,0-16.8,5.7-17.4,14.6c-0.1,0.9,0.6,1.4,1.7,1.4h8c1.1,0,1.8-0.5,1.8-1.4c0.4-3.8,2.4-6.1,6.3-6.1
			c4.3,0,6,2.6,6,5.6c0,9.2-12.7,10-12.7,24.8v2c0,0.9,0.7,1.3,1.8,1.3h8.3c1.1,0,1.8-0.5,1.8-1.3v-2c0-11,12.5-12.5,12.5-25.2
			C80.9,41.6,73.6,36.2,62.8,36.2z"/>
	</g>
</g>
<g class="st0">
	<g class="st1">
		<path d="M124.4,128.7c-8.1-6.7-13.5-13.5-16.1-20.2c11.6-11.9,17.9-27.4,17.9-44c0-34.8-28.3-63.1-63.1-63.1
			C28.3,1.4,0,29.7,0,64.5s28.3,63.1,63.1,63.1c7.6,0,15-1.3,22.1-4c9.5,7,19.9,10.6,30.9,10.6c0,0,0,0,0,0c2.3,0,4.6-0.2,6.9-0.5
			l6.4-0.9L124.4,128.7z M87.4,118.1l-1.3-1l-1.5,0.6c-6.8,2.8-14.1,4.2-21.5,4.2c-31.7,0-57.4-25.8-57.4-57.4
			C5.7,32.8,31.4,7,63.1,7c31.7,0,57.4,25.8,57.4,57.4c0,15.7-6.2,30.3-17.5,41.3l-1.3,1.2l0.6,1.7c2.2,6.8,6.6,13.3,13.4,19.8
			C105.6,128.4,96.1,124.9,87.4,118.1z"/>
		<path d="M59.2,78H67c1.1,0,1.7-0.5,1.7-1.4V36.4c0-0.9-0.6-1.4-1.7-1.4h-7.7c-1.1,0-1.7,0.5-1.7,1.4v40.2
			C57.5,77.5,58.1,78,59.2,78z"/>
		<path d="M63.1,81.5c-3.8,0-6.3,2.2-6.3,5.4s2.6,5.5,6.3,5.5c3.8,0,6.4-2.3,6.4-5.5S66.9,81.5,63.1,81.5z"/>
	</g>
</g>
</svg>
