<?xml version="1.0" encoding="utf-8"?>
<!-- Generator: Adobe Illustrator 21.0.2, SVG Export Plug-In . SVG Version: 6.00 Build 0)  -->
<svg version="1.1" id="Layer_1" xmlns="http://www.w3.org/2000/svg" xmlns:xlink="http://www.w3.org/1999/xlink" x="0px" y="0px"
	 viewBox="0 0 73 68.9" style="enable-background:new 0 0 73 68.9;" xml:space="preserve">
<g>
	<g>
		<path d="M71.5,65.9h-5.1c0.3-0.6,0.4-1.3,0.4-1.9c0-2.8-2.5-5-5.8-5.5V7.4c0-0.8-0.7-1.5-1.5-1.5h-16V1.5C43.5,0.7,42.8,0,42,0
			h-7.2c-0.8,0-1.5,0.7-1.5,1.5v4.4h-3.8c-0.8,0-1.5,0.7-1.5,1.5v58.5H15.3v-6.8c5.1-0.9,9-6.5,9-13.2c0-7.3-4.7-13.3-10.5-13.3
			s-10.5,6-10.5,13.3c0,6.7,3.9,12.2,9,13.2v6.8H1.5c-0.8,0-1.5,0.7-1.5,1.5s0.7,1.5,1.5,1.5h28h5.3h19.3h2.7h14.7
			c0.8,0,1.5-0.7,1.5-1.5S72.3,65.9,71.5,65.9z M6.3,45.9c0-5.7,3.4-10.3,7.5-10.3s7.5,4.6,7.5,10.3c0,5-2.6,9.2-6,10.1v-3.6
			l2.9-0.8c0.8-0.2,1.3-1.1,1-1.9c-0.2-0.8-1.1-1.3-1.9-1l-2.1,0.6V48l2.9-0.8c0.8-0.2,1.3-1.1,1-1.9c-0.2-0.8-1.1-1.3-1.9-1
			l-2.1,0.6v-2.6c0-0.8-0.7-1.5-1.5-1.5s-1.5,0.7-1.5,1.5v2.6L10,44.3c-0.8-0.2-1.6,0.2-1.9,1c-0.2,0.8,0.2,1.6,1,1.9L12,48v1.3
			l-2.1-0.6c-0.8-0.2-1.6,0.2-1.9,1c-0.2,0.8,0.2,1.6,1,1.9l2.9,0.8V56C8.9,55.1,6.3,50.9,6.3,45.9z M63.8,64c0,0.7-0.6,1.4-1.5,1.9
			h-5.8C55.6,65.4,55,64.7,55,64c0-1.3,1.8-2.7,4.4-2.7S63.8,62.7,63.8,64z M52.7,52.2v9.3C52.3,62.2,52,63,52,63.9
			c0,0.7,0.2,1.3,0.4,1.9H46V52.2H52.7z M36.3,3h4.2v2.9h-4.2V3z M31,8.9h3.8H42h16v49.5c-0.8,0.1-1.6,0.3-2.3,0.7v-8.3
			c0-0.8-0.7-1.5-1.5-1.5H34.8c-0.8,0-1.5,0.7-1.5,1.5V66H31V8.9z M36.3,52.2H43v13.7h-6.7V52.2z"/>
		<path d="M34.8,22.2h19.3c0.8,0,1.5-0.7,1.5-1.5V14c0-0.8-0.7-1.5-1.5-1.5H34.8c-0.8,0-1.5,0.7-1.5,1.5v6.7
			C33.3,21.5,34,22.2,34.8,22.2z M36.3,15.5h16.3v3.7H36.3V15.5z"/>
		<path d="M34.8,34.5h19.3c0.8,0,1.5-0.7,1.5-1.5v-6.6c0-0.8-0.7-1.5-1.5-1.5H34.8c-0.8,0-1.5,0.7-1.5,1.5v6.7
			C33.3,33.9,34,34.5,34.8,34.5z M36.3,27.9h16.3v3.7H36.3V27.9z"/>
		<path d="M34.8,46.7h19.3c0.8,0,1.5-0.7,1.5-1.5v-6.7c0-0.8-0.7-1.5-1.5-1.5H34.8c-0.8,0-1.5,0.7-1.5,1.5v6.7
			C33.3,46.1,34,46.7,34.8,46.7z M36.3,40.1h16.3v3.7H36.3V40.1z"/>
	</g>
</g>
</svg>
