<?xml version="1.0" encoding="utf-8"?>
<!-- Generator: Adobe Illustrator 21.0.2, SVG Export Plug-In . SVG Version: 6.00 Build 0)  -->
<svg version="1.1" id="Layer_1" xmlns="http://www.w3.org/2000/svg" xmlns:xlink="http://www.w3.org/1999/xlink" x="0px" y="0px"
	 viewBox="0 0 74.7 90" style="enable-background:new 0 0 74.7 90;" xml:space="preserve">
<path d="M28,72.1c-0.4-5.6-4.3-10.9-8.4-11.2c-0.1,0-0.2,0-0.3,0c0,0,0,0,0,0s0,0,0,0c-0.1,0-0.2,0-0.3,0c-4.1,0.3-8,5.5-8.4,11.2
	c0,0.1,0,0.2,0,0.4v1.5c0,3.1,2.3,5.7,5.4,6c0.1,0,0.1,0,0.2,0c0.7,0,1.4-0.6,1.4-1.3c0.1-0.8-0.5-1.5-1.3-1.6
	c-1.6-0.2-2.8-1.5-2.8-3.1v-1.2c0,0,0-0.1,0-0.1c0.1-4.5,3.4-8.7,5.8-8.8c2.4,0,5.7,4.3,5.8,8.8c0,0,0,0.1,0,0.1v1.2
	c0,1.5-1.1,2.8-2.5,3.1c-0.8,0.2-1.3,0.9-1.2,1.7c0.1,0.7,0.7,1.2,1.4,1.2c0.1,0,0.2,0,0.3,0c2.8-0.6,4.9-3.1,4.9-5.9v-1.5
	C28.1,72.3,28.1,72.2,28,72.1z"/>
<path d="M19.4,63.7c-0.8,0-1.5-0.7-1.5-1.5c0-6.6,3.2-12.9,8.5-16.8c0.6-0.5,1.6-0.3,2,0.3c0.5,0.6,0.3,1.6-0.3,2
	c-4.6,3.4-7.3,8.8-7.3,14.4C20.9,63.1,20.2,63.7,19.4,63.7z"/>
<path d="M55.1,66.3c-0.1,0-0.1,0-0.2,0c-0.8-0.1-1.3,0.2-1.2-0.6c0.1-0.8,0.2-2.4,0.2-3.4c0-6.1-3.1-11.8-8.3-15.1
	c-0.7-0.4-0.9-1.3-0.4-2c0.4-0.7,1.3-0.9,2-0.4c6,3.9,9.6,10.4,9.6,17.6c0,1-0.1,2.8-0.2,3.8C56.4,66.8,55.8,66.3,55.1,66.3z"/>
<path d="M54.8,76.1c-3.3,0-6-2.7-6-6c0-3.3,2.7-6,6-6c3.3,0,6,2.7,6,6C60.7,73.4,58.1,76.1,54.8,76.1z M54.8,66.6
	c-1.9,0-3.5,1.6-3.5,3.5c0,1.9,1.6,3.5,3.5,3.5c1.9,0,3.5-1.6,3.5-3.5C58.2,68.2,56.7,66.6,54.8,66.6z"/>
<path d="M23.3,50.2"/>
<path d="M26.9,62"/>
<path d="M51.3,50"/>
<path d="M47.8,62"/>
<path d="M51.3,50"/>
<g>
	<g>
		<path d="M37.4,84.5h-0.1c-0.6,0-1.1-0.3-1.4-0.8c-0.1-0.2-0.2-0.4-0.2-0.7c-1.1-2.2-5.1-10.3-8.4-18.3c-0.1-0.2-0.1-0.4-0.1-0.7
			l0-19.4c0-0.9,0.8-1.7,1.7-1.7h0c0.9,0,1.7,0.8,1.7,1.7l0,19c2.4,5.8,5.2,11.6,6.9,15.1c1.7-3.5,4.4-9.3,6.8-15.1l0.1-19.1
			c0-0.9,0.8-1.7,1.7-1.7c0,0,0,0,0,0c0.9,0,1.7,0.8,1.7,1.7L47.6,64c0,0.2,0,0.4-0.1,0.6c-3.3,8-7.3,16.1-8.3,18.3
			c0,0.2-0.1,0.5-0.2,0.7C38.6,84.2,38,84.5,37.4,84.5z"/>
	</g>
</g>
<path d="M28.5,45.9c-0.1,0-0.1,0-0.2,0c-0.2,0-0.3-0.1-0.5-0.1c-7.5-1.9-12.4-8.4-12.9-17.5C14.2,17.8,19.5,4.5,30.6,0.4
	c0.1,0,0.1,0,0.2,0c1.3-0.4,3.9-0.8,6.6,0.2c2.7-1,5.3-0.6,6.6-0.2c0.1,0,0.1,0,0.2,0c11,4.1,16.3,17.4,15.7,27.8
	c-0.6,9.1-5.4,15.6-12.9,17.5c-0.5,0.2-1.2,0.2-1.7-0.2c-0.8-0.5-0.9-1.6-0.4-2.4c0.1-0.2,0.3-0.3,0.4-0.4c0.2-0.1,0.4-0.2,0.6-0.3
	c8.9-2.1,10.3-10.8,10.5-14.4c0.6-9.3-4.3-21-13.4-24.4c-1.1-0.3-3-0.5-5,0.3c-0.4,0.2-1,0.2-1.4,0c-2-0.9-3.9-0.6-5-0.3
	c-9.1,3.4-14,15.1-13.4,24.4c0.2,3.7,1.7,12.4,10.6,14.4c0.5,0.1,0.9,0.5,1.2,0.9c0.2,0.4,0.2,0.8,0.1,1.2
	C29.9,45.4,29.2,45.9,28.5,45.9z"/>
<path d="M38.6,90h-2.4c-0.3,0-32.4-0.3-35.2-10.3c-2.2-9-1.3-21.2,15.7-28.1c1.2-0.5,3.5-1.4,3.5-1.4c0.7-0.3,1.9-1.1,2.5-1.6l3.2-3
	c0.8-0.8,1.8-1.1,2.7-0.8c0.9,0.3,0.6,1.1,0.9,2.2c0.2,0.9,0.6,1.8-0.3,2c-0.6,0.1-1.2,0-1.6-0.4L24.9,51c-0.8,0.9-2.4,1.9-3.6,2.4
	c0,0-2.2,0.9-3.4,1.4C6,59.6,1.4,67.7,4.2,78.8c1.4,5.1,21.3,7.7,31.9,7.7h2.4c10.7,0,30.5-2.6,32-7.8c2.8-11.1-1.8-19.2-13.7-24
	c-1.2-0.5-3.6-1.4-3.6-1.4c-1.2-0.5-2.8-1.5-3.7-2.4l-2.5-2.3c-0.4,0.4-1,0.5-1.5,0.4c-0.9-0.2-1-1.1-0.8-2c0.2-1.1,0.4-1.9,1.4-2.2
	c0.9-0.3,1.9,0,2.7,0.8l3.1,2.8c0,0,0,0,0.1,0.1c0.6,0.6,1.7,1.4,2.5,1.6c0,0,2.4,0.9,3.6,1.4c17,6.9,17.9,19.1,15.7,28.1
	C71,89.7,38.9,90,38.6,90z"/>
</svg>
