<?xml version="1.0" encoding="utf-8"?>
<!-- Generator: Adobe Illustrator 21.0.2, SVG Export Plug-In . SVG Version: 6.00 Build 0)  -->
<svg version="1.1" id="Layer_1" xmlns="http://www.w3.org/2000/svg" xmlns:xlink="http://www.w3.org/1999/xlink" x="0px" y="0px"
	 viewBox="0 0 64 68.4" style="enable-background:new 0 0 64 68.4;" xml:space="preserve">
<g>
	<g>
		<path d="M64,25.1c0-3.8-3.1-6.9-6.9-6.9s-6.9,3.1-6.9,6.9c0,3.3,2.3,6,5.4,6.7v13.4c0,16.8-11.9,20.3-21.8,20.3
			c-6.7,0-14.3-1.8-14.7-15.6c9.1-0.8,16.2-8.6,16.2-18.1V11.5l0,0l0,0c0-0.2,0-0.4-0.1-0.5l0,0c-0.1-0.2-0.2-0.4-0.3-0.5L30,5.6
			c0-0.1,0-0.2,0-0.3c0-2.8-2.3-5.1-5.1-5.1s-5.1,2.3-5.1,5.1s2.3,5.1,5.1,5.1c1.5,0,2.8-0.7,3.8-1.7l3.6,3.6v19.6
			c0,1.7-0.3,3.3-0.8,4.8H3.7c-0.5-1.5-0.8-3.1-0.8-4.8V12.1l3.6-3.6c0.9,1,2.3,1.7,3.8,1.7c2.8,0,5.1-2.3,5.1-5.1S13.1,0,10.3,0
			S5.2,2.3,5.2,5.1c0,0.1,0,0.2,0,0.3l-4.8,5c-0.1,0.1-0.3,0.3-0.3,0.5l0,0C0,11.1,0,11.3,0,11.4l0,0l0,0v20.3
			c0,9.5,7.2,17.4,16.2,18.1c0.4,12.3,6.3,18.6,17.7,18.6c16,0,24.8-8.3,24.8-23.3V31.8C61.7,31.1,64,28.4,64,25.1z M25,7.2
			c-1.1,0-2.1-0.9-2.1-2.1S23.8,3,25,3s2.1,0.9,2.1,2.1S26.1,7.2,25,7.2z M10.3,3.1c1.1,0,2.1,0.9,2.1,2.1s-0.9,2.1-2.1,2.1
			S8.2,6.4,8.2,5.2S9.2,3.1,10.3,3.1z M5,39.5h25.2c-2.6,4.4-7.3,7.4-12.6,7.4l0,0l0,0C12.3,46.9,7.6,43.9,5,39.5z M57.2,29
			c-2.1,0-3.9-1.7-3.9-3.9s1.7-3.9,3.9-3.9c2.1,0,3.9,1.7,3.9,3.9S59.3,29,57.2,29z"/>
		<circle cx="57.2" cy="25.1" r="2.1"/>
	</g>
</g>
</svg>
