<?xml version="1.0" encoding="utf-8"?>
<!-- Generator: Adobe Illustrator 21.0.2, SVG Export Plug-In . SVG Version: 6.00 Build 0)  -->
<svg version="1.1" id="Layer_1" xmlns="http://www.w3.org/2000/svg" xmlns:xlink="http://www.w3.org/1999/xlink" x="0px" y="0px"
	 viewBox="0 0 76.1 90" style="enable-background:new 0 0 76.1 90;" xml:space="preserve">
<path d="M37.9,46.2c-8.5,0-13.7-8.5-14.8-12.3c-0.2-0.8-0.4-1.7-0.6-2.8c-1-0.7-1.8-1.7-2.3-2.8c-0.7-1.9-1.1-5.5-1.1-5.5
	C19,20.6,19.4,19,19.9,18c0.2-11.5,6.7-18,18-18c2.9,0,8.1,1.1,10.4,3.5c0.1,0,0.2,0.1,0.3,0.1c3.4,1,7.4,3.5,7.5,14.5
	c0.5,1,1,2.6,0.7,4.8l0,0c0,0-0.3,3.6-1.1,5.4c-0.5,1.2-1.3,2.2-2.3,2.8c-0.1,0.8-0.3,1.8-0.6,2.8C51.7,38.2,46.1,46.2,37.9,46.2z
	 M23,19.5c-0.1,0.2-0.6,1.2-0.4,3c0.1,0.7,0.4,3.4,0.8,4.5c0.3,0.7,0.8,1.2,1.4,1.5c0.5,0.2,0.9,0.7,0.9,1.3
	c0.2,1.2,0.4,2.3,0.7,3.2c0.7,2.6,4.8,9.9,11.5,9.9c6.8,0,11-7.3,11.7-9.9c0.3-1.2,0.5-2.4,0.7-3.2c0.1-0.5,0.4-1,0.9-1.3
	c0.7-0.3,1.1-0.8,1.4-1.5c0.4-1.1,0.8-3.7,0.8-4.5c0.2-1.9-0.3-2.9-0.4-3.1c-0.2-0.3-0.3-0.6-0.3-1c0-10.2-3.4-11.2-5.1-11.7
	c-0.6-0.2-1.2-0.3-1.7-0.9c-1.3-1.4-5.5-2.6-8.1-2.6c-9.6,0-14.6,5.2-14.6,15.1C23.3,18.8,23.2,19.2,23,19.5z"/>
<path d="M58.7,64.5c0-0.6,0-1.2,0-1.6c0-7.1-3.6-13.6-9.5-17.4c-0.7-0.4-1.6-0.2-2,0.4c-0.4,0.7-0.2,1.6,0.4,2
	c5.1,3.3,8.2,8.9,8.2,15c0,0.4,0,0.8,0,1.3c-2.9,0.5-5,2.9-5,5.9c0,3.3,2.7,6,6,6s6-2.7,6-6C62.8,67.5,61,65.3,58.7,64.5z
	 M56.8,73.7c-1.9,0-3.5-1.6-3.5-3.5c0-1.9,1.6-3.5,3.5-3.5c0.5,0,1,0.1,1.4,0.3c0.1,0.1,0.2,0.1,0.2,0.1c1.1,0.6,1.9,1.7,1.9,3.1
	C60.3,72.1,58.7,73.7,56.8,73.7z"/>
<path d="M28.8,45.9c-0.4-0.7-1.3-0.9-2-0.4c-5.3,3.4-8.7,9-9.4,15.2c-3.7,0.9-7,5.7-7.4,10.9c0,0.1,0,0.2,0,0.4v1.5
	c0,3.1,2.3,5.6,5.3,6c0.1,0,0.1,0,0.2,0c0.7,0,1.4-0.5,1.4-1.3c0.1-0.8-0.5-1.5-1.3-1.6c-1.6-0.2-2.8-1.5-2.8-3.1v-1.2
	c0,0,0-0.1,0-0.1c0.1-4.5,3.4-8.7,5.8-8.7c2.4,0,5.6,4.2,5.8,8.7c0,0,0,0.1,0,0.1v1.2c0,1.5-1.1,2.8-2.5,3.1
	c-0.8,0.2-1.3,0.9-1.1,1.7c0.1,0.7,0.7,1.2,1.4,1.2c0.1,0,0.2,0,0.3,0c2.8-0.6,4.9-3,4.9-5.9V72c0-0.1,0-0.2-0.1-0.4
	c-0.3-5-3.4-9.6-7-10.8c0.6-5.3,3.5-10,8-12.9C29.1,47.5,29.2,46.6,28.8,45.9z"/>
<path d="M38.1,78.8L38.1,78.8c-0.7,0-1.4-0.4-1.6-1c-1.7-4.1-3.1-9.1-4-12.5c-0.1-0.2-0.1-0.5,0-0.7c0.5-3.5,1.4-6.6,1.9-8.4
	c-0.1-0.3-0.3-0.6-0.5-0.9c-0.5-0.9-0.9-1.8-1.1-2.7c-0.3-2.1,0.5-3.4,1.2-4.3c0.8-1,2.4-1.3,3.4-0.5l0.6,0.4l0.7-0.5
	c0.3-0.3,0.8-0.4,1.3-0.4c0.8,0,1.5,0.4,2,1c0.7,0.9,1.6,2.2,1.2,4.3c-0.2,1-0.6,1.9-1.1,2.7c-0.2,0.3-0.3,0.6-0.5,0.9
	c0.5,1.8,1.4,4.9,1.9,8.4c0,0.2,0,0.5,0,0.7c-0.9,3.5-2.3,8.4-4,12.5C39.4,78.4,38.7,78.8,38.1,78.8z M35.8,64.8
	c0.7,2.8,1.5,5.3,2.2,7.6c0.7-2.3,1.5-4.8,2.2-7.6c-0.6-3.6-1.4-6.6-1.9-8.2c-0.1-0.3-0.1-0.7,0-1.1c0.2-0.6,0.5-1.2,0.8-1.8
	c0.3-0.6,0.7-1.3,0.7-1.7c0.1-0.4,0-0.6-0.1-0.9l-0.3,0.2c-0.8,0.6-2.2,0.6-3.1,0l-0.2-0.2c-0.1,0.3-0.2,0.6-0.1,0.9
	c0.1,0.4,0.4,1.1,0.7,1.7c0.3,0.6,0.6,1.2,0.8,1.8c0.1,0.3,0.1,0.7,0,1.1C37.2,58.1,36.4,61.2,35.8,64.8z"/>
<path d="M39.3,90h-2.5c-0.3,0-33-0.3-35.9-10.4C-1.4,70.4-0.5,58,16.8,51c1.3-0.5,3.6-1.4,3.6-1.4c0.8-0.3,2-1.1,2.6-1.7
	c0,0,0,0,0.1-0.1l2.2-2c0.7-0.7,1.5-0.9,2-0.9c1.2,0,2.2,0.9,2.6,2.2L38,73.6l8.1-26.4c0.3-1.3,1.3-2.2,2.5-2.2c0.5,0,1.3,0.2,2,0.9
	l2.1,1.9c0,0,0.1,0.1,0.1,0.1c0.6,0.6,1.8,1.4,2.6,1.7c0,0,2.4,0.9,3.7,1.5C76.5,58,77.4,70.4,75.2,79.5C72.3,89.7,39.6,90,39.3,90z
	 M25.3,50.3c-0.9,0.9-2.5,2-3.7,2.4c0,0-2.2,0.9-3.5,1.4C6,59,1.3,67.3,4.2,78.7c1.5,5.5,22.3,7.9,32.6,7.9h2.5
	c10.3,0,31.1-2.4,32.6-8c2.8-11.3-1.9-19.6-14-24.6c-1.3-0.5-3.7-1.4-3.7-1.4c-1.2-0.5-2.8-1.5-3.7-2.4l-1.5-1.3L40.2,78
	c-0.5,1.8-1.7,2-2.2,2c-0.5,0-1.6-0.2-2.2-2l-9-29.1L25.3,50.3z"/>
</svg>
