<?xml version="1.0" encoding="utf-8"?>
<!-- Generator: Adobe Illustrator 21.0.2, SVG Export Plug-In . SVG Version: 6.00 Build 0)  -->
<svg version="1.1" id="Layer_1" xmlns="http://www.w3.org/2000/svg" xmlns:xlink="http://www.w3.org/1999/xlink" x="0px" y="0px"
	 viewBox="0 0 59 59" style="enable-background:new 0 0 59 59;" xml:space="preserve">
<g>
	<g>
		<ellipse transform="matrix(0.7071 -0.7071 0.7071 0.7071 -27.974 28.0703)" cx="19.9" cy="47.8" rx="2.3" ry="2.3"/>
		<ellipse transform="matrix(0.7071 -0.7071 0.7071 0.7071 -26.2194 23.7412)" cx="15.5" cy="43.5" rx="2.3" ry="2.3"/>
		<ellipse transform="matrix(0.7071 -0.7071 0.7071 0.7071 -24.3641 19.3705)" cx="11.2" cy="39.1" rx="2.3" ry="2.3"/>
		<ellipse transform="matrix(0.7071 -0.7071 0.7071 0.7071 -31.6817 23.9681)" cx="13.1" cy="50.2" rx="2.3" ry="2.3"/>
		<ellipse transform="matrix(0.7071 -0.7071 0.7071 0.7071 -29.8563 19.6682)" cx="8.8" cy="45.9" rx="2.3" ry="2.3"/>
		<ellipse transform="matrix(0.7071 -0.7071 0.7071 0.7071 3.5359 30.9283)" cx="39.1" cy="11.2" rx="2.3" ry="2.3"/>
		<ellipse transform="matrix(0.7071 -0.7071 0.7071 0.7071 1.78 35.2582)" cx="43.5" cy="15.5" rx="2.3" ry="2.3"/>
		<ellipse transform="matrix(0.7071 -0.7071 0.7071 0.7071 -7.439974e-02 39.6282)" cx="47.8" cy="19.9" rx="2.3" ry="2.3"/>
		<ellipse transform="matrix(0.7071 -0.7071 0.7071 0.7071 7.2433 35.0309)" cx="45.9" cy="8.8" rx="2.3" ry="2.3"/>
		<ellipse transform="matrix(0.7071 -0.7071 0.7071 0.7071 5.4178 39.3304)" cx="50.2" cy="13.1" rx="2.3" ry="2.3"/>
		<path d="M48.9,29.5l6.2-6.2c2.5-2.5,3.9-5.9,3.9-9.5s-1.4-7-3.9-9.5l-0.4-0.4C52.2,1.4,48.8,0,45.2,0s-7,1.4-9.5,3.9l-6.2,6.2
			l-6.2-6.2C20.8,1.4,17.4,0,13.8,0s-7,1.4-9.5,3.9L3.9,4.3C1.4,6.8,0,10.2,0,13.8s1.4,7,3.9,9.5l6.2,6.2l-6.2,6.2
			C1.4,38.2,0,41.6,0,45.2s1.4,7,3.9,9.5l0.4,0.4c2.5,2.5,5.9,3.9,9.5,3.9s7-1.4,9.5-3.9l6.2-6.2l6.2,6.2c2.5,2.5,5.9,3.9,9.5,3.9
			s7-1.4,9.5-3.9l0.4-0.4c2.5-2.5,3.9-5.9,3.9-9.5s-1.4-7-3.9-9.5L48.9,29.5z M37.9,5.9c2-2,4.7-3.1,7.4-3.1s5.4,1,7.4,3.1l0.4,0.4
			c4.1,4.1,4.1,10.8,0,14.8l-6.2,6.2L31.6,12.2L37.9,5.9z M44.7,29.5L29.5,44.7L14.3,29.5l15.2-15.2L44.7,29.5z M5.9,6.3l0.4-0.4
			c2-2,4.7-3.1,7.4-3.1s5.4,1,7.4,3.1l6.2,6.2L12.2,27.4L6,21.2C1.8,17,1.8,10.4,5.9,6.3z M21.1,53.1c-4.1,4.1-10.8,4.1-14.8,0
			l-0.4-0.4c-4.1-4.1-4.1-10.8,0-14.8l6.2-6.2l15.2,15.2L21.1,53.1z M53.1,52.7l-0.4,0.4c-4.1,4.1-10.8,4.1-14.8,0l-6.2-6.2
			l15.2-15.2l6.2,6.2C57.2,42,57.2,48.6,53.1,52.7z"/>
		<ellipse transform="matrix(0.7071 -0.7071 0.7071 0.7071 -22.3491 41.6444)" cx="39.1" cy="47.8" rx="2.3" ry="2.3"/>
		<ellipse transform="matrix(0.7071 -0.7071 0.7071 0.7071 -17.9779 43.4994)" cx="43.5" cy="43.5" rx="2.3" ry="2.3"/>
		<ellipse transform="matrix(0.7071 -0.7071 0.7071 0.7071 -13.6486 45.2546)" cx="47.8" cy="39.1" rx="2.3" ry="2.3"/>
		<ellipse transform="matrix(0.7071 -0.7071 0.7071 0.7071 -22.0501 47.1362)" cx="45.9" cy="50.2" rx="2.3" ry="2.3"/>
		<ellipse transform="matrix(0.7071 -0.7071 0.7071 0.7071 -17.7508 48.9623)" cx="50.2" cy="45.9" rx="2.3" ry="2.3"/>
		<ellipse transform="matrix(0.7071 -0.7071 0.7071 0.7071 -2.0908 17.3551)" cx="19.9" cy="11.2" rx="2.3" ry="2.3"/>
		<ellipse transform="matrix(0.7071 -0.7071 0.7071 0.7071 -6.4615 15.4998)" cx="15.5" cy="15.5" rx="2.3" ry="2.3"/>
		<ellipse transform="matrix(0.7071 -0.7071 0.7071 0.7071 -10.79 13.7444)" cx="11.2" cy="19.9" rx="2.3" ry="2.3"/>
		<ellipse transform="matrix(0.7071 -0.7071 0.7071 0.7071 -2.3882 11.8627)" cx="13.1" cy="8.8" rx="2.3" ry="2.3"/>
		<ellipse transform="matrix(0.7071 -0.7071 0.7071 0.7071 -6.6879 10.0367)" cx="8.8" cy="13.1" rx="2.3" ry="2.3"/>
	</g>
</g>
</svg>
